<svg width="132" height="45" viewBox="0 0 132 45" fill="none" xmlns="http://www.w3.org/2000/svg">
<g clip-path="url(#clip0_4887_60751)">
<rect x="0.5" y="0.764648" width="131" height="43" rx="7.5" fill="white" stroke="black"/>
<path d="M27.4962 22.1434C27.5085 21.1886 27.7622 20.2525 28.2335 19.4221C28.7048 18.5917 29.3785 17.894 30.1919 17.3939C29.6752 16.6559 28.9935 16.0486 28.2009 15.6202C27.4084 15.1917 26.5269 14.954 25.6265 14.9258C23.7056 14.7242 21.8434 16.0752 20.8646 16.0752C19.8668 16.0752 18.3597 14.9458 16.7368 14.9792C15.6871 15.0131 14.6641 15.3184 13.7674 15.8652C12.8708 16.412 12.131 17.1818 11.6203 18.0996C9.40811 21.9298 11.0582 27.5589 13.1774 30.655C14.2377 32.171 15.4768 33.8645 17.0982 33.8044C18.6849 33.7386 19.2774 32.7927 21.1926 32.7927C23.0901 32.7927 23.646 33.8044 25.3003 33.7662C27.0029 33.7386 28.0755 32.2435 29.0986 30.7131C29.8604 29.6328 30.4466 28.4389 30.8355 27.1756C29.8464 26.7572 29.0023 26.057 28.4085 25.1621C27.8147 24.2672 27.4974 23.2174 27.4962 22.1434Z" fill="black"/>
<path d="M24.3714 12.8894C25.2997 11.775 25.757 10.3426 25.6463 8.89648C24.2281 9.04544 22.918 9.72326 21.9772 10.7949C21.5172 11.3184 21.1649 11.9275 20.9404 12.5872C20.7159 13.247 20.6237 13.9445 20.6689 14.6399C21.3783 14.6472 22.0801 14.4935 22.7214 14.1903C23.3627 13.887 23.9269 13.4422 24.3714 12.8894Z" fill="black"/>
<path d="M46.5316 30.1181H41.3249L40.0745 33.8102H37.8691L42.8009 20.1504H45.0922L50.0239 33.8102H47.781L46.5316 30.1181ZM41.8642 28.4144H45.9914L43.9568 22.4224H43.8998L41.8642 28.4144Z" fill="black"/>
<path d="M60.6746 28.8312C60.6746 31.9261 59.0182 33.9144 56.5185 33.9144C55.8853 33.9476 55.2555 33.8017 54.7013 33.4935C54.1472 33.1854 53.691 32.7274 53.385 32.172H53.3377V37.1049H51.2935V23.8512H53.2722V25.5076H53.3098C53.6298 24.9549 54.0937 24.4993 54.6521 24.1893C55.2105 23.8792 55.8425 23.7264 56.4809 23.747C59.0085 23.747 60.6746 25.745 60.6746 28.8312ZM58.5735 28.8312C58.5735 26.8149 57.5315 25.4893 55.9416 25.4893C54.3797 25.4893 53.3291 26.8429 53.3291 28.8312C53.3291 30.8379 54.3797 32.1817 55.9416 32.1817C57.5315 32.1817 58.5735 30.8658 58.5735 28.8312Z" fill="black"/>
<path d="M71.6366 28.8312C71.6366 31.9261 69.9796 33.9144 67.4799 33.9144C66.8467 33.9476 66.2169 33.8017 65.6628 33.4935C65.1086 33.1854 64.6524 32.7274 64.3464 32.172H64.2991V37.1049H62.2549V23.8512H64.2336V25.5076H64.2712C64.5912 24.9549 65.0551 24.4993 65.6135 24.1893C66.1719 23.8792 66.8039 23.7264 67.4423 23.747C69.97 23.747 71.6366 25.745 71.6366 28.8312ZM69.5349 28.8312C69.5349 26.8149 68.4929 25.4893 66.9031 25.4893C65.3411 25.4893 64.2906 26.8429 64.2906 28.8312C64.2906 30.8379 65.3411 32.1817 66.9031 32.1817C68.4929 32.1817 69.5349 30.8658 69.5349 28.8312Z" fill="black"/>
<path d="M78.8802 30.0045C79.0317 31.359 80.3476 32.2484 82.1459 32.2484C83.8689 32.2484 85.1085 31.359 85.1085 30.1376C85.1085 29.0773 84.3609 28.4425 82.5906 28.0074L80.8203 27.581C78.312 26.9751 77.1475 25.8021 77.1475 23.8985C77.1475 21.5417 79.2014 19.9229 82.1169 19.9229C85.0044 19.9229 86.9831 21.5417 87.0497 23.8985H84.9861C84.8625 22.5354 83.7357 21.7125 82.0889 21.7125C80.4421 21.7125 79.3153 22.545 79.3153 23.7567C79.3153 24.7225 80.035 25.2907 81.7956 25.7257L83.3006 26.0953C86.1033 26.7581 87.2666 27.8839 87.2666 29.8819C87.2666 32.4375 85.2321 34.038 81.9943 34.038C78.965 34.038 76.9197 32.4751 76.7876 30.0043L78.8802 30.0045Z" fill="black"/>
<path d="M91.6807 21.4941V23.851H93.5745V25.4698H91.6807V30.9602C91.6807 31.8131 92.0599 32.2105 92.8924 32.2105C93.1172 32.2066 93.3417 32.1908 93.5648 32.1632V33.7724C93.1905 33.8424 92.8101 33.874 92.4294 33.867C90.4131 33.867 89.6267 33.1096 89.6267 31.1782V25.4698H88.1787V23.851H89.6267V21.4941H91.6807Z" fill="black"/>
<path d="M94.6699 28.8311C94.6699 25.6976 96.5154 23.7285 99.3933 23.7285C102.281 23.7285 104.118 25.6975 104.118 28.8311C104.118 31.9731 102.29 33.9336 99.3933 33.9336C96.4971 33.9336 94.6699 31.9731 94.6699 28.8311ZM102.035 28.8311C102.035 26.6815 101.05 25.4129 99.3933 25.4129C97.7368 25.4129 96.7517 26.6912 96.7517 28.8311C96.7517 30.9892 97.7368 32.2481 99.3933 32.2481C101.05 32.2481 102.035 30.9892 102.035 28.8311Z" fill="black"/>
<path d="M105.803 23.8511H107.753V25.5462H107.8C107.932 25.0167 108.242 24.5489 108.679 24.2212C109.115 23.8935 109.651 23.726 110.196 23.7468C110.431 23.746 110.666 23.7716 110.896 23.8231V25.7352C110.599 25.6444 110.288 25.6026 109.978 25.6117C109.681 25.5997 109.385 25.652 109.11 25.7652C108.835 25.8784 108.588 26.0497 108.385 26.2674C108.183 26.485 108.03 26.7439 107.937 27.0263C107.845 27.3086 107.814 27.6077 107.847 27.903V33.8101H105.803L105.803 23.8511Z" fill="black"/>
<path d="M120.322 30.885C120.047 32.6929 118.286 33.9336 116.033 33.9336C113.136 33.9336 111.338 31.9925 111.338 28.8783C111.338 25.7545 113.146 23.7285 115.947 23.7285C118.703 23.7285 120.435 25.6213 120.435 28.6409V29.3413H113.401V29.4648C113.369 29.8314 113.415 30.2006 113.536 30.548C113.657 30.8954 113.851 31.2131 114.104 31.4799C114.358 31.7467 114.665 31.9565 115.006 32.0955C115.346 32.2344 115.713 32.2993 116.081 32.2857C116.564 32.331 117.048 32.2191 117.463 31.9667C117.877 31.7143 118.199 31.3349 118.38 30.885L120.322 30.885ZM113.411 27.9126H118.39C118.408 27.583 118.359 27.2532 118.243 26.9439C118.128 26.6346 117.95 26.3524 117.721 26.1151C117.492 25.8777 117.216 25.6903 116.91 25.5647C116.605 25.4391 116.277 25.3779 115.947 25.385C115.614 25.383 115.284 25.4469 114.976 25.5732C114.668 25.6994 114.388 25.8853 114.153 26.1203C113.917 26.3553 113.73 26.6347 113.603 26.9423C113.475 27.2499 113.41 27.5797 113.411 27.9126Z" fill="black"/>
<path d="M41.6086 9.86975C42.0372 9.839 42.4672 9.90374 42.8677 10.0593C43.2683 10.2149 43.6293 10.4574 43.9247 10.7694C44.2202 11.0814 44.4427 11.4551 44.5762 11.8635C44.7098 12.2719 44.751 12.7048 44.697 13.1311C44.697 15.228 43.5637 16.4333 41.6086 16.4333H39.2378V9.86975H41.6086ZM40.2572 15.5051H41.4947C41.801 15.5234 42.1074 15.4731 42.3918 15.3581C42.6762 15.243 42.9314 15.066 43.1387 14.8398C43.3461 14.6137 43.5004 14.3442 43.5904 14.0509C43.6805 13.7576 43.704 13.448 43.6593 13.1445C43.7007 12.8421 43.6748 12.5344 43.5834 12.2433C43.492 11.9521 43.3373 11.6848 43.1304 11.4605C42.9235 11.2362 42.6696 11.0604 42.3868 10.9457C42.104 10.8311 41.7994 10.7804 41.4947 10.7973H40.2572V15.5051Z" fill="black"/>
<path d="M45.8485 13.9538C45.8173 13.6283 45.8546 13.2999 45.9578 12.9896C46.061 12.6793 46.2279 12.394 46.4479 12.1521C46.6678 11.9101 46.9359 11.7167 47.2349 11.5844C47.534 11.4521 47.8573 11.3838 48.1843 11.3838C48.5113 11.3838 48.8347 11.4521 49.1338 11.5844C49.4328 11.7167 49.7009 11.9101 49.9208 12.1521C50.1408 12.394 50.3077 12.6793 50.4109 12.9896C50.5141 13.2999 50.5514 13.6283 50.5202 13.9538C50.552 14.2796 50.5152 14.6085 50.4122 14.9193C50.3093 15.2301 50.1424 15.5159 49.9224 15.7583C49.7024 16.0008 49.4342 16.1945 49.1348 16.3271C48.8355 16.4597 48.5117 16.5282 48.1843 16.5282C47.857 16.5282 47.5332 16.4597 47.2339 16.3271C46.9345 16.1945 46.6662 16.0008 46.4462 15.7583C46.2262 15.5159 46.0594 15.2301 45.9565 14.9193C45.8535 14.6085 45.8167 14.2796 45.8485 13.9538ZM49.5148 13.9538C49.5148 12.8801 49.0324 12.2522 48.186 12.2522C47.3362 12.2522 46.8583 12.8801 46.8583 13.9538C46.8583 15.0361 47.3363 15.6591 48.186 15.6591C49.0324 15.6591 49.5148 15.0318 49.5148 13.9538Z" fill="black"/>
<path d="M56.7304 16.4327H55.7163L54.6926 12.7847H54.6152L53.5958 16.4327H52.5914L51.2261 11.4795H52.2176L53.1049 15.2591H53.1779L54.1963 11.4795H55.1341L56.1524 15.2591H56.2298L57.1128 11.4795H58.0903L56.7304 16.4327Z" fill="black"/>
<path d="M59.2388 11.4794H60.1798V12.2663H60.2528C60.3768 11.9836 60.5858 11.7467 60.8507 11.5885C61.1157 11.4304 61.4234 11.3588 61.731 11.3838C61.972 11.3657 62.214 11.402 62.439 11.4901C62.6641 11.5782 62.8664 11.7158 63.0311 11.8928C63.1957 12.0697 63.3185 12.2814 63.3902 12.5122C63.4619 12.743 63.4808 12.987 63.4454 13.2261V16.4326H62.4679V13.4715C62.4679 12.6755 62.122 12.2797 61.399 12.2797C61.2354 12.2721 61.072 12.2999 60.9202 12.3613C60.7683 12.4227 60.6315 12.5163 60.5192 12.6355C60.4069 12.7547 60.3216 12.8968 60.2693 13.0521C60.2171 13.2073 60.199 13.372 60.2163 13.5349V16.4326H59.2388L59.2388 11.4794Z" fill="black"/>
<path d="M65.0029 9.5459H65.9805V16.4327H65.0029V9.5459Z" fill="black"/>
<path d="M67.3391 13.9539C67.308 13.6284 67.3453 13.2999 67.4485 12.9896C67.5518 12.6793 67.7187 12.3941 67.9387 12.1521C68.1587 11.9101 68.4268 11.7167 68.7258 11.5844C69.0249 11.4521 69.3483 11.3838 69.6753 11.3838C70.0023 11.3838 70.3257 11.4521 70.6248 11.5844C70.9238 11.7167 71.1919 11.9101 71.4119 12.1521C71.6319 12.3941 71.7988 12.6793 71.9021 12.9896C72.0053 13.2999 72.0426 13.6284 72.0115 13.9539C72.0432 14.2798 72.0063 14.6086 71.9033 14.9194C71.8004 15.2302 71.6335 15.516 71.4135 15.7584C71.1935 16.0009 70.9252 16.1946 70.6258 16.3272C70.3265 16.4598 70.0027 16.5283 69.6753 16.5283C69.3479 16.5283 69.0241 16.4598 68.7248 16.3272C68.4254 16.1946 68.1571 16.0009 67.9371 15.7584C67.7171 15.516 67.5503 15.2302 67.4473 14.9194C67.3443 14.6086 67.3075 14.2798 67.3391 13.9539ZM71.0054 13.9539C71.0054 12.8802 70.5231 12.2523 69.6766 12.2523C68.8269 12.2523 68.349 12.8802 68.349 13.9539C68.349 15.0362 68.827 15.6592 69.6766 15.6592C70.5231 15.6592 71.0054 15.0319 71.0054 13.9539Z" fill="black"/>
<path d="M73.041 15.0318C73.041 14.1402 73.7049 13.6262 74.8833 13.5532L76.225 13.4758V13.0483C76.225 12.5251 75.8791 12.2297 75.2109 12.2297C74.6652 12.2297 74.2871 12.4301 74.1786 12.7803H73.2322C73.3321 11.9295 74.1324 11.3838 75.2561 11.3838C76.4979 11.3838 77.1982 12.002 77.1982 13.0483V16.4326H76.2572V15.7365H76.1799C76.0229 15.9862 75.8025 16.1898 75.5411 16.3264C75.2797 16.463 74.9867 16.5278 74.6921 16.5142C74.4842 16.5359 74.274 16.5137 74.0752 16.4491C73.8763 16.3845 73.6932 16.279 73.5377 16.1393C73.3821 15.9997 73.2575 15.829 73.172 15.6382C73.0865 15.4475 73.0418 15.2409 73.041 15.0318ZM76.225 14.6086V14.1945L75.0154 14.2718C74.3333 14.3175 74.0239 14.5495 74.0239 14.9862C74.0239 15.432 74.4106 15.6914 74.9424 15.6914C75.0982 15.7072 75.2556 15.6914 75.4052 15.6451C75.5548 15.5988 75.6936 15.5229 75.8133 15.4219C75.9329 15.3209 76.031 15.1968 76.1018 15.0571C76.1725 14.9174 76.2144 14.7648 76.225 14.6086Z" fill="black"/>
<path d="M78.4829 13.954C78.4829 12.3888 79.2875 11.3973 80.539 11.3973C80.8485 11.3831 81.1557 11.4572 81.4247 11.6111C81.6937 11.765 81.9133 11.9922 82.0579 12.2663H82.131V9.5459H83.1085V16.4327H82.1718V15.6501H82.0944C81.9387 15.9224 81.7114 16.1468 81.4372 16.2991C81.163 16.4515 80.8524 16.5259 80.539 16.5143C79.2789 16.5144 78.4829 15.5229 78.4829 13.954ZM79.4927 13.954C79.4927 15.0046 79.9879 15.6367 80.8162 15.6367C81.6401 15.6367 82.1493 14.9954 82.1493 13.9583C82.1493 12.9259 81.6347 12.2755 80.8162 12.2755C79.9933 12.2755 79.4927 12.912 79.4927 13.954Z" fill="black"/>
<path d="M87.1527 13.9538C87.1215 13.6283 87.1587 13.2999 87.262 12.9896C87.3652 12.6793 87.5321 12.394 87.7521 12.1521C87.972 11.9101 88.2401 11.7167 88.5391 11.5844C88.8382 11.4521 89.1615 11.3838 89.4885 11.3838C89.8155 11.3838 90.1389 11.4521 90.438 11.5844C90.737 11.7167 91.0051 11.9101 91.225 12.1521C91.4449 12.394 91.6119 12.6793 91.7151 12.9896C91.8183 13.2999 91.8556 13.6283 91.8244 13.9538C91.8562 14.2796 91.8194 14.6085 91.7164 14.9193C91.6135 15.2301 91.4466 15.5159 91.2266 15.7583C91.0066 16.0008 90.7384 16.1945 90.439 16.3271C90.1397 16.4597 89.8159 16.5282 89.4885 16.5282C89.1612 16.5282 88.8374 16.4597 88.538 16.3271C88.2387 16.1945 87.9704 16.0008 87.7504 15.7583C87.5304 15.5159 87.3636 15.2301 87.2607 14.9193C87.1577 14.6085 87.1209 14.2796 87.1527 13.9538ZM90.819 13.9538C90.819 12.8801 90.3366 12.2522 89.4902 12.2522C88.6404 12.2522 88.1625 12.8801 88.1625 13.9538C88.1625 15.0361 88.6405 15.6591 89.4902 15.6591C90.3366 15.6591 90.819 15.0318 90.819 13.9538Z" fill="black"/>
<path d="M93.1362 11.4794H94.0772V12.2663H94.1503C94.2742 11.9836 94.4832 11.7467 94.7482 11.5885C95.0131 11.4304 95.3209 11.3588 95.6284 11.3838C95.8694 11.3657 96.1114 11.402 96.3365 11.4901C96.5615 11.5782 96.7639 11.7158 96.9285 11.8928C97.0932 12.0697 97.2159 12.2814 97.2877 12.5122C97.3594 12.743 97.3782 12.987 97.3429 13.2261V16.4326H96.3653V13.4715C96.3653 12.6755 96.0194 12.2797 95.2965 12.2797C95.1329 12.2721 94.9695 12.2999 94.8176 12.3613C94.6658 12.4227 94.529 12.5163 94.4167 12.6355C94.3043 12.7547 94.2191 12.8968 94.1668 13.0521C94.1145 13.2073 94.0964 13.372 94.1138 13.5349V16.4326H93.1362V11.4794Z" fill="black"/>
<path d="M102.867 10.2461V11.5019H103.94V12.3252H102.867V14.8722C102.867 15.3911 103.08 15.6183 103.567 15.6183C103.691 15.6179 103.816 15.6103 103.94 15.5957V16.41C103.764 16.4414 103.586 16.4581 103.408 16.4599C102.321 16.4599 101.888 16.0775 101.888 15.1225V12.3252H101.102V11.5018H101.888V10.2461H102.867Z" fill="black"/>
<path d="M105.275 9.5459H106.244V12.2755H106.321C106.451 11.9902 106.666 11.752 106.936 11.5932C107.206 11.4344 107.519 11.3628 107.831 11.3882C108.071 11.3751 108.311 11.4152 108.533 11.5054C108.756 11.5957 108.956 11.7339 109.119 11.9103C109.282 12.0866 109.404 12.2968 109.476 12.5258C109.548 12.7547 109.569 12.9968 109.537 13.2348V16.4327H108.559V13.4759C108.559 12.6848 108.19 12.2841 107.5 12.2841C107.332 12.2703 107.163 12.2934 107.004 12.3518C106.846 12.4101 106.703 12.5023 106.584 12.6219C106.465 12.7415 106.374 12.8857 106.317 13.0442C106.259 13.2028 106.238 13.3719 106.252 13.5398V16.4327H105.275L105.275 9.5459Z" fill="black"/>
<path d="M115.237 15.0953C115.104 15.548 114.817 15.9396 114.424 16.2015C114.032 16.4635 113.56 16.5792 113.091 16.5283C112.765 16.5369 112.44 16.4744 112.141 16.3451C111.841 16.2158 111.573 16.0229 111.355 15.7796C111.137 15.5364 110.975 15.2487 110.88 14.9365C110.785 14.6243 110.758 14.295 110.803 13.9717C110.759 13.6473 110.786 13.3174 110.881 13.0042C110.976 12.6911 111.138 12.402 111.354 12.1567C111.571 11.9113 111.838 11.7153 112.136 11.582C112.435 11.4486 112.759 11.3811 113.087 11.3839C114.465 11.3839 115.296 12.3255 115.296 13.8809V14.222H111.799V14.2768C111.783 14.4585 111.806 14.6415 111.866 14.8139C111.925 14.9863 112.02 15.1444 112.144 15.278C112.269 15.4116 112.419 15.5178 112.587 15.5897C112.755 15.6617 112.935 15.6978 113.118 15.6958C113.352 15.7238 113.589 15.6817 113.798 15.5748C114.008 15.4679 114.181 15.3009 114.296 15.0953L115.237 15.0953ZM111.799 13.499H114.3C114.313 13.3328 114.29 13.1658 114.234 13.0088C114.178 12.8518 114.09 12.7083 113.975 12.5874C113.86 12.4666 113.721 12.3711 113.567 12.3071C113.414 12.2431 113.248 12.212 113.081 12.2159C112.912 12.2137 112.744 12.2455 112.588 12.3092C112.431 12.373 112.289 12.4674 112.169 12.587C112.05 12.7066 111.955 12.8489 111.892 13.0055C111.828 13.1621 111.796 13.3299 111.799 13.499Z" fill="black"/>
</g>
<defs>
<clipPath id="clip0_4887_60751">
<rect width="132" height="44.0001" fill="white" transform="translate(0 0.264648)"/>
</clipPath>
</defs>
</svg>
