<svg width="152" height="45" viewBox="0 0 152 45" fill="none" xmlns="http://www.w3.org/2000/svg">
<g clip-path="url(#clip0_4920_61000)">
<rect x="0.5" y="0.764648" width="151" height="43" rx="7.5" fill="#000427" stroke="white"/>
<path fill-rule="evenodd" clip-rule="evenodd" d="M74.4508 23.5782C71.7997 23.5782 69.6506 25.5898 69.6506 28.3644C69.6506 31.1138 71.8137 33.1505 74.4508 33.1505C77.102 33.1505 79.251 31.125 79.251 28.3644C79.251 25.5898 77.102 23.5782 74.4508 23.5782ZM74.4508 31.254C73.0004 31.254 71.752 30.0533 71.752 28.3532C71.752 26.6278 73.0032 25.4523 74.4508 25.4523C75.9013 25.4523 77.1497 26.6278 77.1497 28.3532C77.1525 30.0645 75.9013 31.254 74.4508 31.254ZM63.9779 23.5782C61.3267 23.5782 59.1777 25.5898 59.1777 28.3644C59.1777 31.1138 61.3408 33.1505 63.9779 33.1505C66.6291 33.1505 68.7781 31.125 68.7781 28.3644C68.7781 25.5898 66.6263 23.5782 63.9779 23.5782ZM63.9779 31.254C62.5275 31.254 61.2791 30.0533 61.2791 28.3532C61.2791 26.6278 62.5303 25.4523 63.9779 25.4523C65.4284 25.4523 66.6768 26.6278 66.6768 28.3532C66.6768 30.0645 65.4284 31.254 63.9779 31.254ZM51.5159 25.0399V27.0654H56.3779C56.2292 28.2017 55.8532 29.0405 55.2781 29.6156C54.5655 30.3282 53.4658 31.1025 51.5272 31.1025C48.5393 31.1025 46.2023 28.6898 46.2023 25.702C46.2023 22.7141 48.5393 20.3014 51.5272 20.3014C53.1403 20.3014 54.3158 20.9383 55.1883 21.7519L56.6247 20.3154C55.4128 19.154 53.7996 18.2646 51.5384 18.2646C47.4396 18.2646 44 21.6032 44 25.6908C44 29.7896 47.4368 33.1169 51.5384 33.1169C53.7519 33.1169 55.4128 32.3931 56.7257 31.0296C58.064 29.6914 58.4876 27.8033 58.4876 26.2799C58.4876 25.8058 58.4511 25.3793 58.3754 25.0174H51.5131C51.5159 25.0146 51.5159 25.0399 51.5159 25.0399ZM102.489 26.6166C102.088 25.5421 100.876 23.567 98.3898 23.567C95.9269 23.567 93.8789 25.5056 93.8789 28.3532C93.8789 31.0408 95.9044 33.1393 98.6288 33.1393C100.817 33.1393 102.091 31.8011 102.615 31.0156L100.991 29.927C100.452 30.7266 99.7028 31.2512 98.6398 31.2512C97.5653 31.2512 96.8134 30.7631 96.3141 29.8008L102.714 27.1496C102.714 27.1524 102.489 26.6166 102.489 26.6166ZM95.9634 28.2157C95.9129 26.3669 97.3998 25.427 98.4628 25.427C99.3018 25.427 100.001 25.8394 100.239 26.4398L95.9634 28.2157ZM90.7648 32.8532H92.8661V18.7921H90.7648V32.8532ZM87.314 24.6415H87.2383C86.7642 24.0776 85.8636 23.567 84.7133 23.567C82.3259 23.567 80.1264 25.6683 80.1264 28.3672C80.1264 31.0548 82.3146 33.1309 84.7133 33.1309C85.8496 33.1309 86.7642 32.6175 87.2383 32.0424H87.314V32.7297C87.314 34.5561 86.3377 35.5408 84.7638 35.5408C83.4761 35.5408 82.6766 34.615 82.3511 33.8407L80.5247 34.6038C81.0494 35.8663 82.4493 37.4289 84.761 37.4289C87.2243 37.4289 89.3115 35.9785 89.3115 32.4408V23.8532H87.3253V24.6415C87.3281 24.6415 87.314 24.6415 87.314 24.6415ZM84.9013 31.254C83.4509 31.254 82.2389 30.0421 82.2389 28.3672C82.2389 26.6783 83.4509 25.4551 84.9013 25.4551C86.3377 25.4551 87.4515 26.6923 87.4515 28.3672C87.4655 30.0421 86.3405 31.254 84.9013 31.254ZM112.328 18.7921H107.303V32.8532H109.405V27.5283H112.331C114.657 27.5283 116.943 25.8423 116.943 23.1658C116.943 20.4894 114.665 18.7921 112.328 18.7921ZM112.39 25.5645H109.402V20.7391H112.39C113.964 20.7391 114.853 22.038 114.853 23.1518C114.853 24.2543 113.952 25.5645 112.39 25.5645ZM125.365 23.553C123.839 23.553 122.265 24.2291 121.614 25.702L123.477 26.4763C123.878 25.702 124.613 25.4383 125.39 25.4383C126.479 25.4383 127.579 26.0891 127.604 27.2506V27.3993C127.228 27.1861 126.403 26.8606 125.416 26.8606C123.404 26.8606 121.364 27.9604 121.364 30.0224C121.364 31.9105 123.014 33.1225 124.852 33.1225C126.263 33.1225 127.04 32.4856 127.525 31.7478H127.601V32.8363H129.627V27.4498C129.627 24.9417 127.764 23.553 125.365 23.553ZM125.101 31.254C124.414 31.254 123.452 30.9174 123.452 30.0533C123.452 28.9648 124.653 28.5523 125.677 28.5523C126.602 28.5523 127.04 28.7515 127.59 29.0265C127.438 30.2889 126.372 31.2428 125.101 31.254ZM137.016 23.8532L134.604 29.9523H134.528L132.028 23.8532H129.767L133.518 32.379L131.38 37.1175H133.568L139.339 23.8532H137.016ZM118.102 32.8532H120.203V18.7921H118.102V32.8532Z" fill="white"/>
<path d="M50.2256 11.5879V14.3564C50.1214 14.4899 49.957 14.6348 49.7324 14.791C49.5111 14.9473 49.2214 15.0824 48.8633 15.1963C48.5052 15.307 48.0658 15.3623 47.5449 15.3623C47.0924 15.3623 46.679 15.2874 46.3047 15.1377C45.9303 14.9847 45.6081 14.7617 45.3379 14.4688C45.0677 14.1758 44.8594 13.8177 44.7129 13.3945C44.5664 12.9714 44.4932 12.488 44.4932 11.9443V11.4756C44.4932 10.932 44.5615 10.4486 44.6982 10.0254C44.8382 9.60221 45.0368 9.24414 45.2939 8.95117C45.5544 8.6582 45.8652 8.43522 46.2266 8.28223C46.5911 8.12923 46.998 8.05273 47.4473 8.05273C48.0495 8.05273 48.5443 8.15202 48.9316 8.35059C49.3223 8.54915 49.6217 8.82259 49.8301 9.1709C50.0384 9.51595 50.1686 9.91309 50.2207 10.3623H48.9121C48.8763 10.1149 48.8047 9.89844 48.6973 9.71289C48.5898 9.52409 48.4368 9.3776 48.2383 9.27344C48.043 9.16602 47.7891 9.1123 47.4766 9.1123C47.2129 9.1123 46.9801 9.16439 46.7783 9.26855C46.5765 9.37272 46.4072 9.52409 46.2705 9.72266C46.1338 9.92122 46.0296 10.167 45.958 10.46C45.8896 10.7529 45.8555 11.0882 45.8555 11.4658V11.9443C45.8555 12.3252 45.8945 12.6637 45.9727 12.96C46.0508 13.2529 46.1631 13.5003 46.3096 13.7021C46.4593 13.9007 46.6432 14.0521 46.8613 14.1562C47.0827 14.2572 47.3333 14.3076 47.6133 14.3076C47.8672 14.3076 48.0771 14.2865 48.2432 14.2441C48.4124 14.1986 48.5475 14.1449 48.6484 14.083C48.7493 14.0212 48.8275 13.9609 48.8828 13.9023V12.5693H47.4717V11.5879H50.2256ZM56.407 14.21V15.2646H52.6277V14.21H56.407ZM53.0379 8.15527V15.2646H51.6951V8.15527H53.0379ZM55.9139 11.0898V12.1201H52.6277V11.0898H55.9139ZM56.3924 8.15527V9.21484H52.6277V8.15527H56.3924ZM60.6891 8.15527V15.2646H59.3512V8.15527H60.6891ZM62.8961 8.15527V9.21484H57.1686V8.15527H62.8961ZM67.8664 8.15527V15.2646H66.5236V8.15527H67.8664ZM72.4219 8.15527V15.2646H71.084V8.15527H72.4219ZM74.6289 8.15527V9.21484H68.9014V8.15527H74.6289ZM83.9254 11.5293V11.8955C83.9254 12.4326 83.8538 12.916 83.7105 13.3457C83.5673 13.7721 83.3639 14.1351 83.1002 14.4346C82.8365 14.734 82.5224 14.9635 82.1578 15.123C81.7932 15.2826 81.388 15.3623 80.942 15.3623C80.5025 15.3623 80.0989 15.2826 79.7311 15.123C79.3665 14.9635 79.0507 14.734 78.7838 14.4346C78.5169 14.1351 78.3102 13.7721 78.1637 13.3457C78.0172 12.916 77.9439 12.4326 77.9439 11.8955V11.5293C77.9439 10.9889 78.0172 10.5055 78.1637 10.0791C78.3102 9.65267 78.5152 9.28971 78.7789 8.99023C79.0426 8.6875 79.3567 8.45638 79.7213 8.29688C80.0891 8.13737 80.4928 8.05762 80.9322 8.05762C81.3782 8.05762 81.7835 8.13737 82.148 8.29688C82.5126 8.45638 82.8268 8.6875 83.0904 8.99023C83.3574 9.28971 83.5624 9.65267 83.7057 10.0791C83.8521 10.5055 83.9254 10.9889 83.9254 11.5293ZM82.568 11.8955V11.5195C82.568 11.1322 82.5322 10.792 82.4605 10.499C82.3889 10.2028 82.2831 9.95378 82.1432 9.75195C82.0032 9.55013 81.8307 9.39876 81.6256 9.29785C81.4205 9.19368 81.1894 9.1416 80.9322 9.1416C80.6718 9.1416 80.4407 9.19368 80.2389 9.29785C80.0403 9.39876 79.871 9.55013 79.7311 9.75195C79.5911 9.95378 79.4837 10.2028 79.4088 10.499C79.3372 10.792 79.3014 11.1322 79.3014 11.5195V11.8955C79.3014 12.2796 79.3372 12.6198 79.4088 12.916C79.4837 13.2122 79.5911 13.4629 79.7311 13.668C79.8743 13.8698 80.0468 14.0228 80.2486 14.127C80.4505 14.2311 80.6816 14.2832 80.942 14.2832C81.2024 14.2832 81.4335 14.2311 81.6354 14.127C81.8372 14.0228 82.0064 13.8698 82.1432 13.668C82.2831 13.4629 82.3889 13.2122 82.4605 12.916C82.5322 12.6198 82.568 12.2796 82.568 11.8955ZM90.976 8.15527V15.2646H89.6283L86.6059 10.333V15.2646H85.2631V8.15527H86.6059L89.6381 13.0918V8.15527H90.976Z" fill="white"/>
<path fill-rule="evenodd" clip-rule="evenodd" d="M12.4497 9.11195C12.1647 9.44034 12 9.94213 12 10.5989V33.8936C12 34.5504 12.1647 35.0522 12.4595 35.3675L12.5357 35.4384L24.7441 22.3868L24.8826 22.241L24.7441 22.0952L12.5259 9.04102L12.4497 9.11195Z" fill="white"/>
<path fill-rule="evenodd" clip-rule="evenodd" d="M30.0612 26.7503L25.9893 22.3971L25.8389 22.2449L25.9893 22.0924L30.0612 17.7393L30.1497 17.797L34.9662 20.7236C36.3449 21.5538 36.3449 22.9252 34.9662 23.7659L30.1497 26.6925L30.0612 26.7503Z" fill="white"/>
<path fill-rule="evenodd" clip-rule="evenodd" d="M29.5397 27.1616L25.3793 22.7139L13.0947 35.8469C13.5444 36.3618 14.2989 36.4196 15.1418 35.9178L29.5397 27.1616Z" fill="white"/>
<path fill-rule="evenodd" clip-rule="evenodd" d="M29.5714 17.4019L15.0234 8.65884C14.1718 8.14393 13.4768 8.12809 13.0249 8.64301L25.3677 21.8496L29.5714 17.4019Z" fill="white"/>
</g>
<defs>
<clipPath id="clip0_4920_61000">
<rect width="152" height="44" fill="white" transform="translate(0 0.264648)"/>
</clipPath>
</defs>
</svg>
