<svg width="44" height="44" viewBox="0 0 44 44" fill="none" xmlns="http://www.w3.org/2000/svg">
<g clip-path="url(#clip0_5305_75226)">
<circle cx="22" cy="22" r="22" fill="#000427"/>
<path d="M22 2C10.9543 2 2 10.9543 2 22C2 33.0457 10.9543 42 22 42C33.0457 42 42 33.0457 42 22C42 10.9543 33.0457 2 22 2ZM27.2805 13.9866C27.2805 13.9866 25.2341 13.8253 24.4279 14.123C23.0954 14.6152 23.0637 15.7662 23.0637 16.8639V19.1056H27.1378L26.5425 23.3937H23.0637V33.9791H18.4621V23.3937H14.6363V19.1056H18.4623V15.4687C18.4623 11.6178 21.4266 10.2226 23.1938 10.0552C24.9611 9.88773 27.2805 10.39 27.2805 10.39V13.9866Z" fill="white"/>
</g>
<defs>
<clipPath id="clip0_5305_75226">
<rect width="44" height="44" fill="white"/>
</clipPath>
</defs>
</svg>
