<svg width="44" height="44" viewBox="0 0 44 44" fill="none" xmlns="http://www.w3.org/2000/svg">
<g clip-path="url(#clip0_5301_75173)">
<circle cx="22" cy="22" r="22" fill="white"/>
<path d="M22 1C10.402 1 1 10.402 1 22C1 33.598 10.402 43 22 43C33.598 43 43 33.598 43 22C43 10.402 33.598 1 22 1ZM27.5445 13.5859C27.5445 13.5859 25.3958 13.4166 24.5493 13.7291C23.1502 14.2459 23.1169 15.4546 23.1169 16.6071V18.9609H27.3947L26.7696 23.4634H23.1169V34.5781H18.2852V23.4634H14.2681V18.9609H18.2855V15.1422C18.2855 11.0987 21.3979 9.63371 23.2535 9.45791C25.1091 9.28212 27.5445 9.8095 27.5445 9.8095V13.5859Z" fill="#000427"/>
</g>
<defs>
<clipPath id="clip0_5301_75173">
<rect width="44" height="44" fill="white"/>
</clipPath>
</defs>
</svg>
