<svg width="44" height="44" viewBox="0 0 44 44" fill="none" xmlns="http://www.w3.org/2000/svg">
<g clip-path="url(#clip0_5301_75177)">
<circle cx="22" cy="22" r="22" fill="white"/>
<path d="M26.8199 13.1017H17.1801C16.6445 13.1016 16.1142 13.2071 15.6193 13.4121C15.1245 13.617 14.6749 13.9175 14.2962 14.2962C13.9175 14.6749 13.617 15.1245 13.4121 15.6193C13.2071 16.1142 13.1016 16.6445 13.1017 17.1801V26.8199C13.1017 27.9016 13.5314 28.9389 14.2962 29.7038C14.6749 30.0825 15.1245 30.3829 15.6193 30.5879C16.1142 30.7928 16.6445 30.8983 17.1801 30.8983H26.8199C27.9016 30.8983 28.9389 30.4686 29.7037 29.7038C30.4686 28.9389 30.8983 27.9016 30.8983 26.8199V17.1801C30.8983 16.6445 30.7928 16.1142 30.5878 15.6193C30.3829 15.1245 30.0825 14.6749 29.7038 14.2962C29.3251 13.9175 28.8755 13.6171 28.3806 13.4121C27.8858 13.2072 27.3555 13.1017 26.8199 13.1017ZM22 27.6102C20.8904 27.6102 19.8057 27.2812 18.8831 26.6647C17.9605 26.0483 17.2415 25.1721 16.8169 24.1469C16.3922 23.1218 16.2811 21.9938 16.4976 20.9055C16.7141 19.8172 17.2484 18.8176 18.033 18.033C18.8176 17.2484 19.8172 16.7141 20.9055 16.4976C21.9938 16.2811 23.1218 16.3922 24.1469 16.8169C25.1721 17.2415 26.0483 17.9605 26.6647 18.8831C27.2812 19.8057 27.6102 20.8904 27.6102 22C27.6102 22.7367 27.4651 23.4663 27.1831 24.1469C26.9012 24.8276 26.488 25.4461 25.967 25.967C25.4461 26.488 24.8276 26.9012 24.1469 27.1831C23.4663 27.4651 22.7367 27.6102 22 27.6102ZM27.8441 17.5359C27.5801 17.5359 27.322 17.4576 27.1025 17.311C26.883 17.1643 26.7119 16.9559 26.6109 16.712C26.5098 16.4681 26.4834 16.1997 26.5349 15.9408C26.5864 15.6819 26.7135 15.444 26.9002 15.2574C27.0868 15.0707 27.3246 14.9436 27.5836 14.8921C27.8425 14.8405 28.1109 14.867 28.3547 14.968C28.5986 15.069 28.8071 15.2401 28.9538 15.4596C29.1004 15.6791 29.1787 15.9371 29.1787 16.2011C29.1787 16.5551 29.0381 16.8946 28.7878 17.1449C28.5375 17.3952 28.198 17.5358 27.8441 17.5359Z" fill="#000427"/>
<path d="M22 18.3533C21.2788 18.3533 20.5737 18.5672 19.974 18.9679C19.3743 19.3686 18.9069 19.9381 18.6309 20.6045C18.3549 21.2708 18.2827 22.004 18.4234 22.7114C18.5641 23.4188 18.9114 24.0686 19.4214 24.5786C19.9314 25.0886 20.5812 25.4359 21.2886 25.5766C21.996 25.7173 22.7292 25.6451 23.3955 25.3691C24.0619 25.0931 24.6314 24.6257 25.0321 24.026C25.4328 23.4263 25.6467 22.7212 25.6467 22C25.6467 21.0328 25.2625 20.1053 24.5786 19.4214C23.8947 18.7375 22.9672 18.3533 22 18.3533Z" fill="#000427"/>
<path d="M22 1C10.402 1 1 10.402 1 22C1 33.598 10.402 43 22 43C33.598 43 43 33.598 43 22C43 10.402 33.598 1 22 1ZM32.9375 26.6348C32.9374 28.3063 32.2734 29.9094 31.0914 31.0914C29.9094 32.2734 28.3063 32.9374 26.6348 32.9375H17.3652C15.6937 32.9374 14.0906 32.2734 12.9086 31.0914C11.7266 29.9094 11.0625 28.3063 11.0624 26.6348V17.3652C11.0625 15.6937 11.7266 14.0906 12.9086 12.9086C14.0906 11.7266 15.6937 11.0626 17.3652 11.0625H26.6348C28.3063 11.0626 29.9094 11.7266 31.0914 12.9086C32.2734 14.0906 32.9374 15.6937 32.9375 17.3652V26.6348Z" fill="#000427"/>
</g>
<defs>
<clipPath id="clip0_5301_75177">
<rect width="44" height="44" fill="white"/>
</clipPath>
</defs>
</svg>
