<svg width="44" height="44" viewBox="0 0 44 44" fill="none" xmlns="http://www.w3.org/2000/svg">
<g clip-path="url(#clip0_5305_75232)">
<circle cx="22" cy="22" r="22" fill="#000427"/>
<path d="M26.5904 13.5254H17.4096C16.8995 13.5254 16.3944 13.6258 15.9232 13.821C15.4519 14.0162 15.0237 14.3023 14.663 14.663C14.3023 15.0237 14.0162 15.4519 13.821 15.9232C13.6258 16.3944 13.5254 16.8995 13.5254 17.4096V26.5904C13.5254 27.6205 13.9346 28.6085 14.6631 29.3369C15.0237 29.6976 15.4519 29.9837 15.9232 30.1789C16.3944 30.3741 16.8995 30.4746 17.4096 30.4746H26.5904C27.6205 30.4746 28.6085 30.0653 29.3369 29.3369C30.0653 28.6085 30.4745 27.6205 30.4745 26.5904V17.4096C30.4745 16.8995 30.3741 16.3944 30.1789 15.9232C29.9837 15.4519 29.6976 15.0237 29.3369 14.6631C28.9762 14.3024 28.5481 14.0163 28.0768 13.8211C27.6056 13.6259 27.1005 13.5254 26.5904 13.5254ZM22 27.343C20.9432 27.343 19.9102 27.0297 19.0316 26.4426C18.1529 25.8555 17.4681 25.021 17.0637 24.0447C16.6593 23.0684 16.5535 21.9941 16.7596 20.9576C16.9658 19.9212 17.4747 18.9691 18.2219 18.2219C18.9691 17.4747 19.9212 16.9658 20.9576 16.7596C21.9941 16.5535 23.0684 16.6593 24.0447 17.0637C25.021 17.4681 25.8555 18.1529 26.4426 19.0316C27.0297 19.9102 27.343 20.9432 27.343 22C27.343 22.7017 27.2048 23.3964 26.9363 24.0447C26.6678 24.6929 26.2743 25.282 25.7781 25.7781C25.282 26.2743 24.6929 26.6678 24.0447 26.9363C23.3964 27.2048 22.7017 27.343 22 27.343ZM27.5658 17.7484C27.3144 17.7485 27.0686 17.6739 26.8595 17.5342C26.6505 17.3946 26.4875 17.1961 26.3913 16.9638C26.2951 16.7315 26.2699 16.4759 26.3189 16.2293C26.368 15.9827 26.489 15.7562 26.6668 15.5784C26.8446 15.4007 27.0711 15.2796 27.3177 15.2305C27.5643 15.1815 27.8199 15.2066 28.0521 15.3028C28.2844 15.3991 28.483 15.562 28.6226 15.771C28.7623 15.9801 28.8369 16.2258 28.8369 16.4773C28.8369 16.8144 28.703 17.1377 28.4646 17.3761C28.2262 17.6145 27.9029 17.7484 27.5658 17.7484Z" fill="white"/>
<path d="M22 18.527C21.3131 18.527 20.6416 18.7306 20.0705 19.1123C19.4993 19.4939 19.0542 20.0363 18.7913 20.6709C18.5285 21.3055 18.4597 22.0039 18.5937 22.6776C18.7277 23.3513 19.0585 23.9701 19.5442 24.4558C20.0299 24.9415 20.6487 25.2723 21.3224 25.4063C21.9961 25.5403 22.6945 25.4715 23.3291 25.2087C23.9637 24.9458 24.5061 24.5007 24.8877 23.9295C25.2694 23.3584 25.473 22.6869 25.473 22C25.473 21.0789 25.1071 20.1955 24.4558 19.5442C23.8045 18.8929 22.9211 18.527 22 18.527Z" fill="white"/>
<path d="M22 2C10.9543 2 2 10.9543 2 22C2 33.0457 10.9543 42 22 42C33.0457 42 42 33.0457 42 22C42 10.9543 33.0457 2 22 2ZM32.4166 26.4141C32.4166 28.006 31.7841 29.5328 30.6585 30.6585C29.5328 31.7841 28.006 32.4166 26.4141 32.4166H17.5859C15.994 32.4166 14.4672 31.7841 13.3415 30.6585C12.2158 29.5328 11.5834 28.006 11.5833 26.4141V17.5859C11.5833 15.994 12.2158 14.4672 13.3415 13.3415C14.4672 12.2158 15.994 11.5834 17.5859 11.5834H26.4141C28.006 11.5834 29.5328 12.2159 30.6585 13.3415C31.7841 14.4672 32.4166 15.994 32.4166 17.5859V26.4141Z" fill="white"/>
</g>
<defs>
<clipPath id="clip0_5305_75232">
<rect width="44" height="44" fill="white"/>
</clipPath>
</defs>
</svg>
