<svg width="204" height="44" viewBox="0 0 204 44" fill="none" xmlns="http://www.w3.org/2000/svg">
<rect x="0.5" y="0.5" width="203" height="43" rx="9.5" fill="white"/>
<rect x="0.5" y="0.5" width="203" height="43" rx="9.5" stroke="#000427"/>
<path d="M46.0795 13.7834H44.9376V15.717H43.8212V10.3395H46.1634C46.7034 10.3395 47.1339 10.4781 47.4549 10.7554C47.776 11.0326 47.9365 11.4619 47.9365 12.0432C47.9365 12.678 47.776 13.1268 47.4549 13.3894C47.1339 13.6521 46.6754 13.7834 46.0795 13.7834ZM46.6049 12.6634C46.7508 12.5345 46.8238 12.3302 46.8238 12.0505C46.8238 11.7708 46.7496 11.5714 46.6012 11.4522C46.4553 11.333 46.2498 11.2734 45.9847 11.2734H44.9376V12.8568H45.9847C46.2498 12.8568 46.4565 12.7923 46.6049 12.6634ZM51.0631 13.6083H49.9029V15.717H48.8048V10.3395H51.4425C51.8195 10.3468 52.1089 10.393 52.3108 10.4781C52.5151 10.5632 52.6878 10.6885 52.8289 10.8539C52.9456 10.9901 53.038 11.1409 53.1061 11.3063C53.1742 11.4716 53.2083 11.6601 53.2083 11.8717C53.2083 12.1271 53.1438 12.3789 53.0149 12.6269C52.886 12.8726 52.6732 13.0465 52.3765 13.1486C52.6246 13.2484 52.7997 13.3906 52.9018 13.5755C53.0064 13.7579 53.0587 14.0376 53.0587 14.4146V14.7758C53.0587 15.0214 53.0684 15.188 53.0879 15.2756C53.1171 15.4142 53.1852 15.5164 53.2922 15.5821V15.717H52.0554C52.0214 15.5979 51.9971 15.5018 51.9825 15.4288C51.9533 15.278 51.9375 15.1236 51.935 14.9655L51.9277 14.4657C51.9229 14.1227 51.8596 13.8941 51.738 13.7798C51.6188 13.6655 51.3939 13.6083 51.0631 13.6083ZM51.7453 12.6306C51.9691 12.5284 52.081 12.3266 52.081 12.025C52.081 11.6991 51.9727 11.4802 51.7563 11.3683C51.6347 11.305 51.4522 11.2734 51.209 11.2734H49.9029V12.7181H51.1762C51.4291 12.7181 51.6188 12.689 51.7453 12.6306ZM56.5574 15.8666C55.7888 15.8666 55.2015 15.6575 54.7953 15.2391C54.2505 14.7259 53.9781 13.9865 53.9781 13.021C53.9781 12.0359 54.2505 11.2965 54.7953 10.8028C55.2015 10.3845 55.7888 10.1753 56.5574 10.1753C57.326 10.1753 57.9134 10.3845 58.3195 10.8028C58.8619 11.2965 59.1331 12.0359 59.1331 13.021C59.1331 13.9865 58.8619 14.7259 58.3195 15.2391C57.9134 15.6575 57.326 15.8666 56.5574 15.8666ZM57.6191 14.4219C57.8793 14.0936 58.0094 13.6266 58.0094 13.021C58.0094 12.4178 57.8781 11.952 57.6154 11.6237C57.3552 11.2929 57.0025 11.1275 56.5574 11.1275C56.1123 11.1275 55.7572 11.2917 55.4921 11.62C55.227 11.9484 55.0945 12.4153 55.0945 13.021C55.0945 13.6266 55.227 14.0936 55.4921 14.4219C55.7572 14.7502 56.1123 14.9144 56.5574 14.9144C57.0025 14.9144 57.3564 14.7502 57.6191 14.4219ZM62.3108 15.717H59.9941V10.3395H62.3108C62.644 10.3443 62.9212 10.3832 63.1426 10.4562C63.5196 10.5802 63.8248 10.8077 64.0583 11.1384C64.2456 11.406 64.3733 11.6954 64.4414 12.0067C64.5095 12.3181 64.5435 12.6148 64.5435 12.8969C64.5435 13.612 64.4 14.2176 64.113 14.7138C63.7239 15.3826 63.1231 15.717 62.3108 15.717ZM63.1462 11.7112C62.9735 11.4194 62.6318 11.2734 62.1211 11.2734H61.0849V14.7831H62.1211C62.6513 14.7831 63.021 14.5216 63.2301 13.9987C63.3445 13.7117 63.4016 13.37 63.4016 12.9735C63.4016 12.4263 63.3165 12.0055 63.1462 11.7112ZM68.5749 13.6448V10.3395H69.7168V13.6448C69.7168 14.2164 69.628 14.6615 69.4505 14.9801C69.1197 15.5638 68.4885 15.8557 67.557 15.8557C66.6255 15.8557 65.9931 15.5638 65.6599 14.9801C65.4823 14.6615 65.3936 14.2164 65.3936 13.6448V10.3395H66.5355V13.6448C66.5355 14.0145 66.5793 14.2845 66.6668 14.4547C66.803 14.7563 67.0998 14.9071 67.557 14.9071C68.0118 14.9071 68.3073 14.7563 68.4435 14.4547C68.5311 14.2845 68.5749 14.0145 68.5749 13.6448ZM74.5873 15.3157C74.186 15.683 73.6728 15.8666 73.0477 15.8666C72.2742 15.8666 71.6662 15.6185 71.2235 15.1224C70.7809 14.6238 70.5596 13.9403 70.5596 13.072C70.5596 12.1332 70.8113 11.4096 71.3147 10.9013C71.7525 10.4586 72.3095 10.2373 72.9857 10.2373C73.8904 10.2373 74.552 10.534 74.9703 11.1275C75.2014 11.4607 75.3254 11.7951 75.3425 12.1308H74.2188C74.1458 11.873 74.0522 11.6784 73.9379 11.547C73.7336 11.3136 73.4308 11.1968 73.0294 11.1968C72.6208 11.1968 72.2986 11.3622 72.0626 11.693C71.8267 12.0213 71.7088 12.4871 71.7088 13.0903C71.7088 13.6935 71.8328 14.1458 72.0809 14.4474C72.3314 14.7466 72.6488 14.8962 73.0331 14.8962C73.4271 14.8962 73.7275 14.7673 73.9342 14.5095C74.0485 14.3708 74.1434 14.1629 74.2188 13.8856H75.3315C75.2342 14.4718 74.9861 14.9485 74.5873 15.3157ZM80.0998 10.3395V11.2917H78.4909V15.717H77.36V11.2917H75.7438V10.3395H80.0998ZM86.0465 15.717V13.3165H83.9451V15.717H82.8324V10.3395H83.9451V12.3898H86.0465V10.3395H87.1629V15.717H86.0465ZM91.4205 13.6448V10.3395H92.5624V13.6448C92.5624 14.2164 92.4736 14.6615 92.2961 14.9801C91.9653 15.5638 91.3341 15.8557 90.4026 15.8557C89.4711 15.8557 88.8387 15.5638 88.5055 14.9801C88.3279 14.6615 88.2392 14.2164 88.2392 13.6448V10.3395H89.3811V13.6448C89.3811 14.0145 89.4249 14.2845 89.5124 14.4547C89.6486 14.7563 89.9453 14.9071 90.4026 14.9071C90.8574 14.9071 91.1529 14.7563 91.2891 14.4547C91.3767 14.2845 91.4205 14.0145 91.4205 13.6448ZM97.9874 15.717H96.8637L94.6675 11.8973V15.717H93.6204V10.3395H94.7988L96.9403 14.0936V10.3395H97.9874V15.717ZM102.945 10.3395V11.2917H101.337V15.717H100.206V11.2917H98.5894V10.3395H102.945Z" fill="#000427"/>
<path d="M44.5169 25.9317H43.1938L43.4856 24.8421H44.8087L45.5157 22.2283H46.8064L46.0994 24.8421H47.1761L47.8636 22.2283H49.1543L48.4668 24.8421H49.7704L49.4785 25.9317H48.1749L47.6495 27.8256H48.9726L48.6808 28.9152H47.3577L46.6637 31.5095H45.373L46.067 28.9152H45.0033L44.2963 31.5095H43.0057L43.7126 28.9152H42.396L42.6879 27.8256H44.0045L44.5169 25.9317ZM46.3588 27.8256L46.8842 25.9317H45.8076L45.3017 27.8256H46.3588ZM54.8164 31.5095H52.9225V25.0237H50.7109V23.7654C51.2946 23.7395 51.7032 23.7006 51.9367 23.6487C52.3085 23.5665 52.6112 23.4022 52.8447 23.1557C53.0047 22.9871 53.1258 22.7623 53.2079 22.4812C53.2555 22.3126 53.2793 22.1872 53.2793 22.105H54.8164V31.5095ZM65.9526 28.072H63.9225V31.5095H61.9379V21.9494H66.1018C67.0617 21.9494 67.827 22.1958 68.3978 22.6888C68.9685 23.1817 69.2539 23.9449 69.2539 24.9783C69.2539 26.1068 68.9685 26.9046 68.3978 27.3715C67.827 27.8385 67.012 28.072 65.9526 28.072ZM66.8866 26.0809C67.146 25.8517 67.2757 25.4885 67.2757 24.9912C67.2757 24.494 67.1438 24.1394 66.8801 23.9276C66.6206 23.7157 66.2553 23.6098 65.784 23.6098H63.9225V26.4246H65.784C66.2553 26.4246 66.6228 26.31 66.8866 26.0809ZM74.1572 26.1457C73.4135 26.1457 72.9141 26.3879 72.659 26.8721C72.5163 27.1445 72.4449 27.564 72.4449 28.1304V31.5095H70.5835V24.4399H72.3476V25.6723C72.633 25.201 72.8816 24.8788 73.0935 24.7059C73.4394 24.4162 73.8891 24.2713 74.4426 24.2713C74.4772 24.2713 74.5053 24.2735 74.5269 24.2778C74.5528 24.2778 74.6069 24.28 74.689 24.2843V26.1782C74.5723 26.1652 74.4685 26.1565 74.3777 26.1522C74.2869 26.1479 74.2134 26.1457 74.1572 26.1457ZM81.6743 25.335C82.271 26.083 82.5693 26.9673 82.5693 27.9877C82.5693 29.0254 82.271 29.914 81.6743 30.6534C81.0776 31.3885 80.1717 31.756 78.9567 31.756C77.7417 31.756 76.8359 31.3885 76.2392 30.6534C75.6425 29.914 75.3441 29.0254 75.3441 27.9877C75.3441 26.9673 75.6425 26.083 76.2392 25.335C76.8359 24.587 77.7417 24.2129 78.9567 24.2129C80.1717 24.2129 81.0776 24.587 81.6743 25.335ZM78.9502 25.776C78.4098 25.776 77.9925 25.9684 77.6985 26.3533C77.4088 26.7338 77.2639 27.2786 77.2639 27.9877C77.2639 28.6968 77.4088 29.2438 77.6985 29.6286C77.9925 30.0135 78.4098 30.2059 78.9502 30.2059C79.4907 30.2059 79.9058 30.0135 80.1955 29.6286C80.4852 29.2438 80.6301 28.6968 80.6301 27.9877C80.6301 27.2786 80.4852 26.7338 80.1955 26.3533C79.9058 25.9684 79.4907 25.776 78.9502 25.776ZM90.3329 21.9624V31.5095H88.5363V30.5302C88.2726 30.9496 87.9721 31.2544 87.6348 31.4447C87.2975 31.6349 86.8781 31.73 86.3765 31.73C85.5507 31.73 84.8545 31.3971 84.2881 30.7312C83.726 30.061 83.4449 29.2027 83.4449 28.1563C83.4449 26.95 83.7217 26.0009 84.2751 25.309C84.8329 24.6172 85.5766 24.2713 86.5063 24.2713C86.9343 24.2713 87.3148 24.3664 87.6478 24.5567C87.9807 24.7426 88.251 25.0021 88.4585 25.335V21.9624H90.3329ZM85.3518 28.0201C85.3518 28.673 85.4815 29.1941 85.7409 29.5832C85.996 29.9767 86.3852 30.1734 86.9084 30.1734C87.4316 30.1734 87.8294 29.9789 88.1018 29.5897C88.3742 29.2006 88.5104 28.6968 88.5104 28.0785C88.5104 27.2137 88.292 26.5954 87.8553 26.2236C87.5872 25.9987 87.2759 25.8863 86.9214 25.8863C86.3809 25.8863 85.9831 26.0917 85.728 26.5024C85.4772 26.9089 85.3518 27.4148 85.3518 28.0201ZM96.5528 30.5107C96.5355 30.5323 96.4923 30.5972 96.4231 30.7053C96.3539 30.8134 96.2718 30.9085 96.1767 30.9907C95.887 31.2501 95.6059 31.4274 95.3335 31.5225C95.0654 31.6176 94.7498 31.6652 94.3866 31.6652C93.3402 31.6652 92.6354 31.289 92.2722 30.5366C92.069 30.1215 91.9673 29.5097 91.9673 28.7011V24.4399H93.8612V28.7011C93.8612 29.1033 93.9088 29.4059 94.0039 29.6092C94.1725 29.9681 94.5033 30.1475 94.9962 30.1475C95.6275 30.1475 96.0599 29.8924 96.2934 29.3822C96.4145 29.1054 96.475 28.7401 96.475 28.2861V24.4399H98.3494V31.5095H96.5528V30.5107ZM106.256 26.9759H104.362C104.327 26.7122 104.239 26.4743 104.096 26.2625C103.888 25.9771 103.566 25.8344 103.129 25.8344C102.507 25.8344 102.081 26.1436 101.852 26.7619C101.731 27.0905 101.67 27.5272 101.67 28.072C101.67 28.5909 101.731 29.0081 101.852 29.3238C102.072 29.9118 102.487 30.2059 103.097 30.2059C103.529 30.2059 103.836 30.0891 104.018 29.8556C104.2 29.6221 104.31 29.3195 104.349 28.9476H106.236C106.193 29.5097 105.99 30.0416 105.627 30.5431C105.047 31.3517 104.189 31.756 103.052 31.756C101.914 31.756 101.078 31.4187 100.542 30.7442C100.005 30.0697 99.7374 29.1941 99.7374 28.1174C99.7374 26.9024 100.034 25.9576 100.626 25.2831C101.218 24.6086 102.036 24.2713 103.078 24.2713C103.964 24.2713 104.688 24.4702 105.25 24.868C105.817 25.2658 106.152 25.9684 106.256 26.9759ZM110.77 30.1929V31.5744L109.894 31.6068C109.021 31.6371 108.424 31.4857 108.104 31.1528C107.897 30.9409 107.793 30.6145 107.793 30.1734V25.8214H106.807V24.5048H107.793V22.5331H109.622V24.5048H110.77V25.8214H109.622V29.5573C109.622 29.847 109.659 30.0286 109.732 30.1021C109.806 30.1713 110.03 30.2059 110.407 30.2059C110.463 30.2059 110.521 30.2059 110.582 30.2059C110.647 30.2015 110.709 30.1972 110.77 30.1929ZM121.549 25.335C122.146 26.083 122.444 26.9673 122.444 27.9877C122.444 29.0254 122.146 29.914 121.549 30.6534C120.953 31.3885 120.047 31.756 118.832 31.756C117.617 31.756 116.711 31.3885 116.114 30.6534C115.517 29.914 115.219 29.0254 115.219 27.9877C115.219 26.9673 115.517 26.083 116.114 25.335C116.711 24.587 117.617 24.2129 118.832 24.2129C120.047 24.2129 120.953 24.587 121.549 25.335ZM118.825 25.776C118.285 25.776 117.868 25.9684 117.573 26.3533C117.284 26.7338 117.139 27.2786 117.139 27.9877C117.139 28.6968 117.284 29.2438 117.573 29.6286C117.868 30.0135 118.285 30.2059 118.825 30.2059C119.366 30.2059 119.781 30.0135 120.071 29.6286C120.36 29.2438 120.505 28.6968 120.505 27.9877C120.505 27.2786 120.36 26.7338 120.071 26.3533C119.781 25.9684 119.366 25.776 118.825 25.776ZM127.088 21.891V23.3957C126.984 23.3828 126.809 23.3741 126.563 23.3698C126.321 23.3611 126.152 23.4152 126.057 23.5319C125.966 23.6443 125.921 23.7697 125.921 23.9081V24.5048H127.134V25.8085H125.921V31.5095H124.079V25.8085H123.048V24.5048H124.059V24.0508C124.059 23.2941 124.187 22.7731 124.442 22.4877C124.71 22.064 125.356 21.8521 126.381 21.8521C126.498 21.8521 126.604 21.8564 126.699 21.8651C126.794 21.8694 126.924 21.878 127.088 21.891ZM135.131 30.1929V31.5744L134.255 31.6068C133.382 31.6371 132.785 31.4857 132.465 31.1528C132.257 30.9409 132.154 30.6145 132.154 30.1734V25.8214H131.168V24.5048H132.154V22.5331H133.983V24.5048H135.131V25.8214H133.983V29.5573C133.983 29.847 134.019 30.0286 134.093 30.1021C134.166 30.1713 134.391 30.2059 134.767 30.2059C134.824 30.2059 134.882 30.2059 134.943 30.2059C135.007 30.2015 135.07 30.1972 135.131 30.1929ZM142.706 27.3586V31.5095H140.819V27.2094C140.819 26.8289 140.754 26.5219 140.624 26.2884C140.456 25.9598 140.136 25.7955 139.664 25.7955C139.176 25.7955 138.804 25.9598 138.549 26.2884C138.298 26.6127 138.173 27.0775 138.173 27.6829V31.5095H136.331V21.9818H138.173V25.3609C138.441 24.9502 138.75 24.6648 139.1 24.5048C139.455 24.3405 139.826 24.2583 140.216 24.2583C140.652 24.2583 141.048 24.334 141.402 24.4853C141.761 24.6367 142.055 24.868 142.285 25.1793C142.479 25.4431 142.598 25.7155 142.641 25.9965C142.685 26.2733 142.706 26.7273 142.706 27.3586ZM150.489 29.434C150.442 29.8535 150.223 30.2794 149.834 30.7118C149.229 31.3993 148.381 31.743 147.292 31.743C146.392 31.743 145.599 31.4533 144.911 30.8739C144.224 30.2945 143.88 29.3519 143.88 28.0461C143.88 26.8224 144.189 25.8841 144.808 25.2312C145.43 24.5783 146.237 24.2519 147.227 24.2519C147.815 24.2519 148.345 24.3621 148.816 24.5826C149.287 24.8032 149.676 25.1512 149.983 25.6269C150.26 26.0463 150.439 26.5327 150.522 27.0862C150.569 27.4105 150.589 27.8774 150.58 28.4871H145.742C145.767 29.1962 145.99 29.6935 146.41 29.9789C146.665 30.1561 146.972 30.2448 147.331 30.2448C147.711 30.2448 148.02 30.1367 148.258 29.9205C148.388 29.8037 148.502 29.6416 148.602 29.434H150.489ZM148.66 27.2678C148.63 26.7792 148.481 26.4095 148.213 26.1587C147.949 25.9036 147.62 25.776 147.227 25.776C146.799 25.776 146.466 25.9101 146.228 26.1782C145.994 26.4462 145.847 26.8094 145.787 27.2678H148.66ZM159.796 31.5095H155.678V21.9494H159.796C160.389 21.958 160.882 22.0272 161.275 22.1569C161.945 22.3774 162.488 22.7817 162.903 23.3698C163.236 23.8454 163.463 24.36 163.584 24.9134C163.705 25.4669 163.766 25.9944 163.766 26.496C163.766 27.7672 163.511 28.8438 163 29.7259C162.309 30.915 161.241 31.5095 159.796 31.5095ZM161.282 24.3881C160.975 23.8692 160.367 23.6098 159.459 23.6098H157.617V29.8491H159.459C160.402 29.8491 161.059 29.3843 161.431 28.4547C161.634 27.9445 161.736 27.337 161.736 26.6322C161.736 25.6593 161.584 24.9113 161.282 24.3881ZM165.394 25.2053C165.882 24.5826 166.721 24.2713 167.91 24.2713C168.684 24.2713 169.372 24.4248 169.973 24.7318C170.574 25.0388 170.874 25.6182 170.874 26.47V29.7129C170.874 29.9378 170.879 30.2102 170.887 30.5302C170.9 30.7723 170.937 30.9366 170.997 31.0231C171.058 31.1096 171.149 31.1809 171.27 31.2371V31.5095H169.259C169.203 31.3668 169.164 31.2328 169.142 31.1074C169.121 30.982 169.104 30.8393 169.091 30.6793C168.835 30.9561 168.541 31.1917 168.208 31.3863C167.811 31.6155 167.361 31.73 166.859 31.73C166.22 31.73 165.69 31.5484 165.27 31.1852C164.855 30.8177 164.648 30.2988 164.648 29.6286C164.648 28.7595 164.983 28.1304 165.653 27.7412C166.021 27.5294 166.561 27.378 167.275 27.2872L167.904 27.2094C168.245 27.1662 168.49 27.1121 168.637 27.0473C168.9 26.9348 169.032 26.7597 169.032 26.5219C169.032 26.2322 168.931 26.0333 168.727 25.9252C168.528 25.8128 168.234 25.7566 167.845 25.7566C167.409 25.7566 167.099 25.8647 166.918 26.0809C166.788 26.2409 166.702 26.457 166.658 26.7295H164.875C164.914 26.1111 165.087 25.6031 165.394 25.2053ZM166.769 30.1734C166.942 30.3161 167.153 30.3875 167.404 30.3875C167.802 30.3875 168.167 30.2707 168.5 30.0372C168.838 29.8037 169.013 29.3778 169.026 28.7595V28.072C168.909 28.1455 168.79 28.2061 168.669 28.2536C168.552 28.2969 168.39 28.3379 168.183 28.3769L167.767 28.4547C167.378 28.5239 167.099 28.6082 166.931 28.7076C166.645 28.8763 166.503 29.1379 166.503 29.4924C166.503 29.8081 166.591 30.0351 166.769 30.1734ZM175.395 29.6546L176.854 24.4399H178.819L176.394 31.3928C175.927 32.7332 175.557 33.5634 175.285 33.8833C175.012 34.2076 174.467 34.3698 173.65 34.3698C173.486 34.3698 173.354 34.3676 173.254 34.3633C173.155 34.3633 173.006 34.3568 172.807 34.3438V32.8651L173.04 32.878C173.222 32.8867 173.395 32.8802 173.559 32.8586C173.724 32.837 173.862 32.7872 173.974 32.7094C174.083 32.6359 174.182 32.4824 174.273 32.2489C174.368 32.0154 174.407 31.8727 174.39 31.8208L171.795 24.4399H173.851L175.395 29.6546Z" fill="#000427"/>
<path d="M16.9347 23.9629L13.6118 31.0494C13.5077 31.2636 13.6179 31.3982 13.9667 31.3309L16.6716 30.7434C16.7251 30.7246 16.7841 30.7292 16.8341 30.7559C16.8841 30.7827 16.9206 30.8292 16.9347 30.8842L18.1525 33.381C18.2688 33.6502 18.4034 33.7053 18.5075 33.4911L22.0446 26.0742L16.9347 23.9629Z" fill="#DE7818"/>
<path d="M27.1787 23.9629L30.5017 31.0494C30.6118 31.2636 30.4956 31.3982 30.1467 31.3309L27.4419 30.7434C27.3883 30.7253 27.3297 30.7302 27.2798 30.7568C27.23 30.7835 27.1934 30.8296 27.1787 30.8842L25.9609 33.381C25.8447 33.6502 25.7161 33.7053 25.606 33.4911L22.0688 26.0742L27.1787 23.9629Z" fill="#DE7818"/>
<path d="M21.0591 28.1365C21.0591 28.1426 21.0468 28.1365 21.0346 28.1365C19.1803 27.9309 17.4419 27.1325 16.0777 25.86C16.0716 25.8538 16.0532 25.8477 16.0593 25.8416L16.2123 25.5173C16.2184 25.505 16.2307 25.5356 16.2368 25.5417C17.5464 26.7595 19.3639 27.5245 21.2243 27.7509C21.2304 27.7509 21.2427 27.7509 21.2427 27.757L21.0591 28.1365Z" fill="#B35454"/>
<path d="M22.0564 27.7936C26.8658 27.7936 30.7646 23.8948 30.7646 19.0854C30.7646 14.276 26.8658 10.3772 22.0564 10.3772C17.2469 10.3772 13.3481 14.276 13.3481 19.0854C13.3481 23.8948 17.2469 27.7936 22.0564 27.7936Z" fill="#F0CD0A"/>
<path d="M22.0561 26.5942C26.2031 26.5942 29.5649 23.2324 29.5649 19.0854C29.5649 14.9385 26.2031 11.5767 22.0561 11.5767C17.9092 11.5767 14.5474 14.9385 14.5474 19.0854C14.5474 23.2324 17.9092 26.5942 22.0561 26.5942Z" fill="#D2B309"/>
<path d="M22.264 26.5656C26.2758 26.5656 29.528 23.3134 29.528 19.3016C29.528 15.2898 26.2758 12.0376 22.264 12.0376C18.2522 12.0376 15 15.2898 15 19.3016C15 23.3134 18.2522 26.5656 22.264 26.5656Z" fill="#E3C101"/>
<path fill-rule="evenodd" clip-rule="evenodd" d="M22.0157 22.6267H23.8009V15.6074H22.0157L20.2305 16.8235V18.3607L21.9233 17.2175H22.0157V22.6267Z" fill="#FFF2B5"/>
<path d="M24.1069 12.9414C26.8937 13.6067 28.8829 16.0653 28.9518 18.9296C29.0208 21.7938 27.1522 24.3453 24.4007 25.1439C26.0897 23.8527 27.2096 21.6496 27.2096 19.1467C27.2096 16.503 25.9612 14.1959 24.1069 12.9414Z" fill="white" fill-opacity="0.3"/>
<path d="M23.0537 28.1364C23.0598 28.1426 23.0721 28.1364 23.0782 28.1364C24.9814 27.8978 26.7316 27.1328 28.0473 25.8722C28.0534 25.8661 28.0718 25.8599 28.0657 25.8538L27.9127 25.5295C27.9066 25.5172 27.8943 25.5478 27.8882 25.554C26.5786 26.7718 24.755 27.5245 22.8885 27.7509C22.8824 27.7509 22.8701 27.7509 22.8701 27.757L23.0537 28.1364Z" fill="#B35454"/>
</svg>
