<svg width="205" height="45" viewBox="0 0 205 45" fill="none" xmlns="http://www.w3.org/2000/svg">
<rect x="1" y="1.02881" width="203" height="43" rx="9.5" fill="#000427"/>
<rect x="1" y="1.02881" width="203" height="43" rx="9.5" stroke="white"/>
<path d="M46.5795 14.3123H45.4376V16.2458H44.3212V10.8683H46.6634C47.2034 10.8683 47.6339 11.0069 47.9549 11.2842C48.276 11.5614 48.4365 11.9907 48.4365 12.572C48.4365 13.2068 48.276 13.6556 47.9549 13.9182C47.6339 14.1809 47.1754 14.3123 46.5795 14.3123ZM47.1049 13.1922C47.2508 13.0633 47.3238 12.859 47.3238 12.5793C47.3238 12.2996 47.2496 12.1002 47.1012 11.981C46.9553 11.8618 46.7498 11.8022 46.4847 11.8022H45.4376V13.3856H46.4847C46.7498 13.3856 46.9565 13.3211 47.1049 13.1922ZM51.5631 14.1371H50.4029V16.2458H49.3048V10.8683H51.9425C52.3195 10.8756 52.6089 10.9218 52.8108 11.0069C53.0151 11.092 53.1878 11.2173 53.3289 11.3827C53.4456 11.5189 53.538 11.6697 53.6061 11.8351C53.6742 12.0005 53.7083 12.189 53.7083 12.4006C53.7083 12.6559 53.6438 12.9077 53.5149 13.1557C53.386 13.4014 53.1732 13.5753 52.8765 13.6775C53.1246 13.7772 53.2997 13.9195 53.4018 14.1043C53.5064 14.2867 53.5587 14.5664 53.5587 14.9434V15.3046C53.5587 15.5502 53.5684 15.7168 53.5879 15.8044C53.6171 15.943 53.6852 16.0452 53.7922 16.1109V16.2458H52.5554C52.5214 16.1267 52.4971 16.0306 52.4825 15.9576C52.4533 15.8068 52.4375 15.6524 52.435 15.4943L52.4277 14.9945C52.4229 14.6515 52.3596 14.4229 52.238 14.3086C52.1188 14.1943 51.8939 14.1371 51.5631 14.1371ZM52.2453 13.1594C52.4691 13.0572 52.581 12.8554 52.581 12.5538C52.581 12.2279 52.4727 12.009 52.2563 11.8971C52.1347 11.8339 51.9522 11.8022 51.709 11.8022H50.4029V13.247H51.6762C51.9291 13.247 52.1188 13.2178 52.2453 13.1594ZM57.0574 16.3954C56.2888 16.3954 55.7015 16.1863 55.2953 15.7679C54.7505 15.2547 54.4781 14.5153 54.4781 13.5498C54.4781 12.5647 54.7505 11.8253 55.2953 11.3316C55.7015 10.9133 56.2888 10.7041 57.0574 10.7041C57.826 10.7041 58.4134 10.9133 58.8195 11.3316C59.3619 11.8253 59.6331 12.5647 59.6331 13.5498C59.6331 14.5153 59.3619 15.2547 58.8195 15.7679C58.4134 16.1863 57.826 16.3954 57.0574 16.3954ZM58.1191 14.9507C58.3793 14.6224 58.5094 14.1554 58.5094 13.5498C58.5094 12.9466 58.3781 12.4808 58.1154 12.1525C57.8552 11.8217 57.5025 11.6563 57.0574 11.6563C56.6123 11.6563 56.2572 11.8205 55.9921 12.1488C55.727 12.4772 55.5945 12.9441 55.5945 13.5498C55.5945 14.1554 55.727 14.6224 55.9921 14.9507C56.2572 15.2791 56.6123 15.4432 57.0574 15.4432C57.5025 15.4432 57.8564 15.2791 58.1191 14.9507ZM62.8108 16.2458H60.4941V10.8683H62.8108C63.144 10.8731 63.4212 10.912 63.6426 10.985C64.0196 11.1091 64.3248 11.3365 64.5583 11.6672C64.7456 11.9348 64.8733 12.2242 64.9414 12.5355C65.0095 12.8469 65.0435 13.1436 65.0435 13.4257C65.0435 14.1408 64.9 14.7464 64.613 15.2426C64.2239 15.9114 63.6231 16.2458 62.8108 16.2458ZM63.6462 12.24C63.4735 11.9482 63.1318 11.8022 62.6211 11.8022H61.5849V15.3119H62.6211C63.1513 15.3119 63.521 15.0504 63.7301 14.5275C63.8445 14.2405 63.9016 13.8988 63.9016 13.5023C63.9016 12.9551 63.8165 12.5343 63.6462 12.24ZM69.0749 14.1736V10.8683H70.2168V14.1736C70.2168 14.7452 70.128 15.1903 69.9505 15.5089C69.6197 16.0926 68.9885 16.3845 68.057 16.3845C67.1255 16.3845 66.4931 16.0926 66.1599 15.5089C65.9823 15.1903 65.8936 14.7452 65.8936 14.1736V10.8683H67.0355V14.1736C67.0355 14.5433 67.0793 14.8133 67.1668 14.9835C67.303 15.2851 67.5998 15.4359 68.057 15.4359C68.5118 15.4359 68.8073 15.2851 68.9435 14.9835C69.0311 14.8133 69.0749 14.5433 69.0749 14.1736ZM75.0873 15.8445C74.686 16.2118 74.1728 16.3954 73.5477 16.3954C72.7742 16.3954 72.1662 16.1473 71.7235 15.6512C71.2809 15.1526 71.0596 14.4691 71.0596 13.6008C71.0596 12.662 71.3113 11.9384 71.8147 11.4301C72.2525 10.9874 72.8095 10.7661 73.4857 10.7661C74.3904 10.7661 75.052 11.0628 75.4703 11.6563C75.7014 11.9895 75.8254 12.3239 75.8425 12.6596H74.7188C74.6458 12.4018 74.5522 12.2072 74.4379 12.0759C74.2336 11.8424 73.9308 11.7256 73.5294 11.7256C73.1208 11.7256 72.7986 11.891 72.5626 12.2218C72.3267 12.5501 72.2088 13.0159 72.2088 13.6191C72.2088 14.2223 72.3328 14.6747 72.5809 14.9762C72.8314 15.2754 73.1488 15.425 73.5331 15.425C73.9271 15.425 74.2275 15.2961 74.4342 15.0383C74.5485 14.8996 74.6434 14.6917 74.7188 14.4144H75.8315C75.7342 15.0006 75.4861 15.4773 75.0873 15.8445ZM80.5998 10.8683V11.8205H78.9909V16.2458H77.86V11.8205H76.2438V10.8683H80.5998ZM86.5465 16.2458V13.8453H84.4451V16.2458H83.3324V10.8683H84.4451V12.9186H86.5465V10.8683H87.6629V16.2458H86.5465ZM91.9205 14.1736V10.8683H93.0624V14.1736C93.0624 14.7452 92.9736 15.1903 92.7961 15.5089C92.4653 16.0926 91.8341 16.3845 90.9026 16.3845C89.9711 16.3845 89.3387 16.0926 89.0055 15.5089C88.8279 15.1903 88.7392 14.7452 88.7392 14.1736V10.8683H89.8811V14.1736C89.8811 14.5433 89.9249 14.8133 90.0124 14.9835C90.1486 15.2851 90.4453 15.4359 90.9026 15.4359C91.3574 15.4359 91.6529 15.2851 91.7891 14.9835C91.8767 14.8133 91.9205 14.5433 91.9205 14.1736ZM98.4874 16.2458H97.3637L95.1675 12.4261V16.2458H94.1204V10.8683H95.2988L97.4403 14.6224V10.8683H98.4874V16.2458ZM103.445 10.8683V11.8205H101.837V16.2458H100.706V11.8205H99.0894V10.8683H103.445Z" fill="white"/>
<path d="M45.0169 26.4605H43.6938L43.9856 25.3709H45.3087L46.0157 22.7571H47.3064L46.5994 25.3709H47.6761L48.3636 22.7571H49.6543L48.9668 25.3709H50.2704L49.9785 26.4605H48.6749L48.1495 28.3544H49.4726L49.1808 29.444H47.8577L47.1637 32.0383H45.873L46.567 29.444H45.5033L44.7963 32.0383H43.5057L44.2126 29.444H42.896L43.1879 28.3544H44.5045L45.0169 26.4605ZM46.8588 28.3544L47.3842 26.4605H46.3076L45.8017 28.3544H46.8588ZM55.3164 32.0383H53.4225V25.5525H51.2109V24.2942C51.7946 24.2683 52.2032 24.2294 52.4367 24.1775C52.8085 24.0953 53.1112 23.931 53.3447 23.6846C53.5047 23.5159 53.6258 23.2911 53.7079 23.01C53.7555 22.8414 53.7793 22.716 53.7793 22.6338H55.3164V32.0383ZM66.4526 28.6008H64.4225V32.0383H62.4379V22.4782H66.6018C67.5617 22.4782 68.327 22.7247 68.8978 23.2176C69.4685 23.7105 69.7539 24.4737 69.7539 25.5071C69.7539 26.6356 69.4685 27.4334 68.8978 27.9004C68.327 28.3673 67.512 28.6008 66.4526 28.6008ZM67.3866 26.6097C67.646 26.3805 67.7757 26.0173 67.7757 25.5201C67.7757 25.0228 67.6438 24.6682 67.3801 24.4564C67.1206 24.2445 66.7553 24.1386 66.284 24.1386H64.4225V26.9534H66.284C66.7553 26.9534 67.1228 26.8388 67.3866 26.6097ZM74.6572 26.6745C73.9135 26.6745 73.4141 26.9167 73.159 27.4009C73.0163 27.6734 72.9449 28.0928 72.9449 28.6592V32.0383H71.0835V24.9688H72.8476V26.2011C73.133 25.7298 73.3816 25.4076 73.5935 25.2347C73.9394 24.945 74.3891 24.8001 74.9426 24.8001C74.9772 24.8001 75.0053 24.8023 75.0269 24.8066C75.0528 24.8066 75.1069 24.8088 75.189 24.8131V26.707C75.0723 26.694 74.9685 26.6853 74.8777 26.681C74.7869 26.6767 74.7134 26.6745 74.6572 26.6745ZM82.1743 25.8638C82.771 26.6118 83.0693 27.4961 83.0693 28.5165C83.0693 29.5542 82.771 30.4428 82.1743 31.1822C81.5776 31.9173 80.6717 32.2848 79.4567 32.2848C78.2417 32.2848 77.3359 31.9173 76.7392 31.1822C76.1425 30.4428 75.8441 29.5542 75.8441 28.5165C75.8441 27.4961 76.1425 26.6118 76.7392 25.8638C77.3359 25.1158 78.2417 24.7417 79.4567 24.7417C80.6717 24.7417 81.5776 25.1158 82.1743 25.8638ZM79.4502 26.3048C78.9098 26.3048 78.4925 26.4973 78.1985 26.8821C77.9088 27.2626 77.7639 27.8074 77.7639 28.5165C77.7639 29.2256 77.9088 29.7726 78.1985 30.1574C78.4925 30.5423 78.9098 30.7347 79.4502 30.7347C79.9907 30.7347 80.4058 30.5423 80.6955 30.1574C80.9852 29.7726 81.1301 29.2256 81.1301 28.5165C81.1301 27.8074 80.9852 27.2626 80.6955 26.8821C80.4058 26.4973 79.9907 26.3048 79.4502 26.3048ZM90.8329 22.4912V32.0383H89.0363V31.059C88.7726 31.4784 88.4721 31.7832 88.1348 31.9735C87.7975 32.1637 87.3781 32.2588 86.8765 32.2588C86.0507 32.2588 85.3545 31.9259 84.7881 31.26C84.226 30.5898 83.9449 29.7315 83.9449 28.6851C83.9449 27.4788 84.2217 26.5297 84.7751 25.8379C85.3329 25.146 86.0766 24.8001 87.0063 24.8001C87.4343 24.8001 87.8148 24.8952 88.1478 25.0855C88.4807 25.2714 88.751 25.5309 88.9585 25.8638V22.4912H90.8329ZM85.8518 28.5489C85.8518 29.2019 85.9815 29.7229 86.2409 30.112C86.496 30.5055 86.8852 30.7022 87.4084 30.7022C87.9316 30.7022 88.3294 30.5077 88.6018 30.1185C88.8742 29.7294 89.0104 29.2256 89.0104 28.6073C89.0104 27.7425 88.792 27.1242 88.3553 26.7524C88.0872 26.5275 87.7759 26.4151 87.4214 26.4151C86.8809 26.4151 86.4831 26.6205 86.228 27.0313C85.9772 27.4377 85.8518 27.9436 85.8518 28.5489ZM97.0528 31.0395C97.0355 31.0611 96.9923 31.126 96.9231 31.2341C96.8539 31.3422 96.7718 31.4373 96.6767 31.5195C96.387 31.7789 96.1059 31.9562 95.8335 32.0513C95.5654 32.1464 95.2498 32.194 94.8866 32.194C93.8402 32.194 93.1354 31.8178 92.7722 31.0655C92.569 30.6504 92.4673 30.0385 92.4673 29.23V24.9688H94.3612V29.23C94.3612 29.6321 94.4088 29.9348 94.5039 30.138C94.6725 30.4969 95.0033 30.6763 95.4962 30.6763C96.1275 30.6763 96.5599 30.4212 96.7934 29.911C96.9145 29.6342 96.975 29.2689 96.975 28.8149V24.9688H98.8494V32.0383H97.0528V31.0395ZM106.756 27.5047H104.862C104.827 27.241 104.739 27.0031 104.596 26.7913C104.388 26.5059 104.066 26.3632 103.629 26.3632C103.007 26.3632 102.581 26.6724 102.352 27.2907C102.231 27.6193 102.17 28.056 102.17 28.6008C102.17 29.1197 102.231 29.537 102.352 29.8526C102.572 30.4406 102.987 30.7347 103.597 30.7347C104.029 30.7347 104.336 30.6179 104.518 30.3844C104.7 30.1509 104.81 29.8483 104.849 29.4764H106.736C106.693 30.0385 106.49 30.5704 106.127 31.0719C105.547 31.8805 104.689 32.2848 103.552 32.2848C102.414 32.2848 101.578 31.9475 101.042 31.273C100.505 30.5985 100.237 29.7229 100.237 28.6462C100.237 27.4312 100.534 26.4864 101.126 25.8119C101.718 25.1374 102.536 24.8001 103.578 24.8001C104.464 24.8001 105.188 24.999 105.75 25.3968C106.317 25.7946 106.652 26.4973 106.756 27.5047ZM111.27 30.7217V32.1032L110.394 32.1356C109.521 32.1659 108.924 32.0145 108.604 31.6816C108.397 31.4697 108.293 31.1433 108.293 30.7022V26.3502H107.307V25.0336H108.293V23.0619H110.122V25.0336H111.27V26.3502H110.122V30.0861C110.122 30.3758 110.159 30.5574 110.232 30.6309C110.306 30.7001 110.53 30.7347 110.907 30.7347C110.963 30.7347 111.021 30.7347 111.082 30.7347C111.147 30.7304 111.209 30.726 111.27 30.7217ZM122.049 25.8638C122.646 26.6118 122.944 27.4961 122.944 28.5165C122.944 29.5542 122.646 30.4428 122.049 31.1822C121.453 31.9173 120.547 32.2848 119.332 32.2848C118.117 32.2848 117.211 31.9173 116.614 31.1822C116.017 30.4428 115.719 29.5542 115.719 28.5165C115.719 27.4961 116.017 26.6118 116.614 25.8638C117.211 25.1158 118.117 24.7417 119.332 24.7417C120.547 24.7417 121.453 25.1158 122.049 25.8638ZM119.325 26.3048C118.785 26.3048 118.368 26.4973 118.073 26.8821C117.784 27.2626 117.639 27.8074 117.639 28.5165C117.639 29.2256 117.784 29.7726 118.073 30.1574C118.368 30.5423 118.785 30.7347 119.325 30.7347C119.866 30.7347 120.281 30.5423 120.571 30.1574C120.86 29.7726 121.005 29.2256 121.005 28.5165C121.005 27.8074 120.86 27.2626 120.571 26.8821C120.281 26.4973 119.866 26.3048 119.325 26.3048ZM127.588 22.4198V23.9245C127.484 23.9116 127.309 23.9029 127.063 23.8986C126.821 23.8899 126.652 23.944 126.557 24.0607C126.466 24.1732 126.421 24.2986 126.421 24.4369V25.0336H127.634V26.3373H126.421V32.0383H124.579V26.3373H123.548V25.0336H124.559V24.5796C124.559 23.8229 124.687 23.3019 124.942 23.0165C125.21 22.5928 125.856 22.3809 126.881 22.3809C126.998 22.3809 127.104 22.3852 127.199 22.3939C127.294 22.3982 127.424 22.4068 127.588 22.4198ZM135.631 30.7217V32.1032L134.755 32.1356C133.882 32.1659 133.285 32.0145 132.965 31.6816C132.757 31.4697 132.654 31.1433 132.654 30.7022V26.3502H131.668V25.0336H132.654V23.0619H134.483V25.0336H135.631V26.3502H134.483V30.0861C134.483 30.3758 134.519 30.5574 134.593 30.6309C134.666 30.7001 134.891 30.7347 135.267 30.7347C135.324 30.7347 135.382 30.7347 135.443 30.7347C135.507 30.7304 135.57 30.726 135.631 30.7217ZM143.206 27.8874V32.0383H141.319V27.7382C141.319 27.3577 141.254 27.0507 141.124 26.8172C140.956 26.4886 140.636 26.3243 140.164 26.3243C139.676 26.3243 139.304 26.4886 139.049 26.8172C138.798 27.1415 138.673 27.6063 138.673 28.2117V32.0383H136.831V22.5106H138.673V25.8897C138.941 25.479 139.25 25.1936 139.6 25.0336C139.955 24.8693 140.326 24.7872 140.716 24.7872C141.152 24.7872 141.548 24.8628 141.902 25.0142C142.261 25.1655 142.555 25.3968 142.785 25.7081C142.979 25.9719 143.098 26.2443 143.141 26.5254C143.185 26.8021 143.206 27.2561 143.206 27.8874ZM150.989 29.9629C150.942 30.3823 150.723 30.8082 150.334 31.2406C149.729 31.9281 148.881 32.2718 147.792 32.2718C146.892 32.2718 146.099 31.9821 145.411 31.4027C144.724 30.8233 144.38 29.8807 144.38 28.5749C144.38 27.3512 144.689 26.4129 145.308 25.76C145.93 25.1071 146.737 24.7807 147.727 24.7807C148.315 24.7807 148.845 24.8909 149.316 25.1114C149.787 25.332 150.176 25.68 150.483 26.1557C150.76 26.5751 150.939 27.0615 151.022 27.615C151.069 27.9393 151.089 28.4063 151.08 29.0159H146.242C146.267 29.725 146.49 30.2223 146.91 30.5077C147.165 30.6849 147.472 30.7736 147.831 30.7736C148.211 30.7736 148.52 30.6655 148.758 30.4493C148.888 30.3326 149.002 30.1704 149.102 29.9629H150.989ZM149.16 27.7966C149.13 27.308 148.981 26.9383 148.713 26.6875C148.449 26.4324 148.12 26.3048 147.727 26.3048C147.299 26.3048 146.966 26.4389 146.728 26.707C146.494 26.975 146.347 27.3383 146.287 27.7966H149.16ZM160.296 32.0383H156.178V22.4782H160.296C160.889 22.4868 161.382 22.556 161.775 22.6857C162.445 22.9063 162.988 23.3105 163.403 23.8986C163.736 24.3742 163.963 24.8888 164.084 25.4422C164.205 25.9957 164.266 26.5232 164.266 27.0248C164.266 28.296 164.011 29.3726 163.5 30.2547C162.809 31.4438 161.741 32.0383 160.296 32.0383ZM161.782 24.9169C161.475 24.398 160.867 24.1386 159.959 24.1386H158.117V30.378H159.959C160.902 30.378 161.559 29.9131 161.931 28.9835C162.134 28.4733 162.236 27.8658 162.236 27.161C162.236 26.1881 162.084 25.4401 161.782 24.9169ZM165.894 25.7341C166.382 25.1114 167.221 24.8001 168.41 24.8001C169.184 24.8001 169.872 24.9536 170.473 25.2606C171.074 25.5676 171.374 26.147 171.374 26.9988V30.2417C171.374 30.4666 171.379 30.739 171.387 31.059C171.4 31.3011 171.437 31.4654 171.497 31.5519C171.558 31.6384 171.649 31.7097 171.77 31.7659V32.0383H169.759C169.703 31.8956 169.664 31.7616 169.642 31.6362C169.621 31.5108 169.604 31.3681 169.591 31.2081C169.335 31.4849 169.041 31.7205 168.708 31.9151C168.311 32.1443 167.861 32.2588 167.359 32.2588C166.72 32.2588 166.19 32.0772 165.77 31.714C165.355 31.3465 165.148 30.8276 165.148 30.1574C165.148 29.2883 165.483 28.6592 166.153 28.2701C166.521 28.0582 167.061 27.9068 167.775 27.816L168.404 27.7382C168.745 27.695 168.99 27.6409 169.137 27.5761C169.4 27.4636 169.532 27.2885 169.532 27.0507C169.532 26.761 169.431 26.5621 169.227 26.454C169.028 26.3416 168.734 26.2854 168.345 26.2854C167.909 26.2854 167.599 26.3935 167.418 26.6097C167.288 26.7697 167.202 26.9859 167.158 27.2583H165.375C165.414 26.6399 165.587 26.1319 165.894 25.7341ZM167.269 30.7022C167.442 30.8449 167.653 30.9163 167.904 30.9163C168.302 30.9163 168.667 30.7995 169 30.566C169.338 30.3326 169.513 29.9066 169.526 29.2883V28.6008C169.409 28.6743 169.29 28.7349 169.169 28.7824C169.052 28.8257 168.89 28.8667 168.683 28.9057L168.267 28.9835C167.878 29.0527 167.599 29.137 167.431 29.2364C167.145 29.4051 167.003 29.6667 167.003 30.0212C167.003 30.3369 167.091 30.5639 167.269 30.7022ZM175.895 30.1834L177.354 24.9688H179.319L176.894 31.9216C176.427 33.262 176.057 34.0922 175.785 34.4122C175.512 34.7364 174.967 34.8986 174.15 34.8986C173.986 34.8986 173.854 34.8964 173.754 34.8921C173.655 34.8921 173.506 34.8856 173.307 34.8726V33.3939L173.54 33.4068C173.722 33.4155 173.895 33.409 174.059 33.3874C174.224 33.3658 174.362 33.316 174.474 33.2382C174.583 33.1647 174.682 33.0112 174.773 32.7777C174.868 32.5442 174.907 32.4015 174.89 32.3497L172.295 24.9688H174.351L175.895 30.1834Z" fill="white"/>
<path d="M17.4347 24.4917L14.1118 31.5782C14.0077 31.7924 14.1179 31.927 14.4667 31.8597L17.1716 31.2722C17.2251 31.2534 17.2841 31.258 17.3341 31.2847C17.3841 31.3115 17.4206 31.358 17.4347 31.413L18.6525 33.9098C18.7688 34.179 18.9034 34.2341 19.0075 34.0199L22.5446 26.603L17.4347 24.4917Z" fill="#DE7818"/>
<path d="M27.6787 24.4917L31.0017 31.5782C31.1118 31.7924 30.9956 31.927 30.6467 31.8597L27.9419 31.2722C27.8883 31.2541 27.8297 31.259 27.7798 31.2856C27.73 31.3123 27.6934 31.3584 27.6787 31.413L26.4609 33.9098C26.3447 34.1791 26.2161 34.2341 26.106 34.0199L22.5688 26.603L27.6787 24.4917Z" fill="#DE7818"/>
<path d="M21.5591 28.6653C21.5591 28.6714 21.5468 28.6653 21.5346 28.6653C19.6803 28.4597 17.9419 27.6613 16.5777 26.3888C16.5716 26.3827 16.5532 26.3765 16.5593 26.3704L16.7123 26.0461C16.7184 26.0338 16.7307 26.0644 16.7368 26.0706C18.0464 27.2884 19.8639 28.0533 21.7243 28.2797C21.7304 28.2797 21.7427 28.2797 21.7427 28.2859L21.5591 28.6653Z" fill="#B35454"/>
<path d="M22.5564 28.3224C27.3658 28.3224 31.2646 24.4236 31.2646 19.6142C31.2646 14.8048 27.3658 10.906 22.5564 10.906C17.7469 10.906 13.8481 14.8048 13.8481 19.6142C13.8481 24.4236 17.7469 28.3224 22.5564 28.3224Z" fill="#F0CD0A"/>
<path d="M22.5561 27.123C26.7031 27.123 30.0649 23.7612 30.0649 19.6142C30.0649 15.4673 26.7031 12.1055 22.5561 12.1055C18.4092 12.1055 15.0474 15.4673 15.0474 19.6142C15.0474 23.7612 18.4092 27.123 22.5561 27.123Z" fill="#D2B309"/>
<path d="M22.764 27.0944C26.7758 27.0944 30.028 23.8422 30.028 19.8304C30.028 15.8186 26.7758 12.5664 22.764 12.5664C18.7522 12.5664 15.5 15.8186 15.5 19.8304C15.5 23.8422 18.7522 27.0944 22.764 27.0944Z" fill="#E3C101"/>
<path fill-rule="evenodd" clip-rule="evenodd" d="M22.5157 23.1555H24.3009V16.1362H22.5157L20.7305 17.3523V18.8895L22.4233 17.7463H22.5157V23.1555Z" fill="#FFF2B5"/>
<path d="M24.6069 13.4702C27.3937 14.1355 29.3829 16.5942 29.4518 19.4584C29.5208 22.3226 27.6522 24.8741 24.9007 25.6727C26.5897 24.3815 27.7096 22.1784 27.7096 19.6755C27.7096 17.0318 26.4612 14.7247 24.6069 13.4702Z" fill="white" fill-opacity="0.3"/>
<path d="M23.5537 28.6652C23.5598 28.6714 23.5721 28.6652 23.5782 28.6652C25.4814 28.4266 27.2316 27.6616 28.5473 26.401C28.5534 26.3949 28.5718 26.3887 28.5657 26.3826L28.4127 26.0583C28.4066 26.046 28.3943 26.0766 28.3882 26.0828C27.0786 27.3006 25.255 28.0533 23.3885 28.2797C23.3824 28.2797 23.3701 28.2797 23.3701 28.2858L23.5537 28.6652Z" fill="#B35454"/>
</svg>
