<svg width="44" height="44" viewBox="0 0 44 44" fill="none" xmlns="http://www.w3.org/2000/svg">
<g clip-path="url(#clip0_5301_75175)">
<circle cx="22" cy="22" r="22" fill="white"/>
<path d="M22 1C10.402 1 1 10.402 1 22C1 33.598 10.402 43 22 43C33.598 43 43 33.598 43 22C43 10.402 33.598 1 22 1ZM32.6329 20.0626C30.403 20.0626 28.2332 19.3389 26.5626 18.1143L26.5493 26.4405C26.5479 27.9833 26.076 29.489 25.1967 30.7567C24.3173 32.0243 23.0723 32.9936 21.6277 33.5353C20.1831 34.0769 18.6076 34.1651 17.1116 33.7881C15.6156 33.4111 14.2701 32.5869 13.2547 31.4253C12.2393 30.2637 11.6023 28.8201 11.4287 27.2871C11.2551 25.7541 11.5532 24.2046 12.2831 22.8454C13.013 21.4862 14.1401 20.3819 15.514 19.6799C16.8878 18.978 18.4431 18.7116 19.9722 18.9165V23.0054C19.2509 22.7923 18.4808 22.8117 17.7711 23.0609C17.0614 23.3101 16.4482 23.7764 16.0185 24.3936C15.5887 25.0109 15.3642 25.7478 15.3768 26.4998C15.3894 27.2519 15.6385 27.9809 16.0886 28.5834C16.5388 29.1859 17.1673 29.6314 17.8849 29.8567C18.6025 30.082 19.3728 30.0756 20.0866 29.8385C20.8004 29.6013 21.4214 29.1455 21.8616 28.5356C22.3017 27.9257 22.5386 27.1927 22.5388 26.4405V9.96872H26.7449C26.7449 10.7419 26.8972 11.5075 27.1931 12.2218C27.489 12.9362 27.9227 13.5852 28.4694 14.1319C29.0161 14.6787 29.6652 15.1123 30.3795 15.4082C31.0939 15.7041 31.8595 15.8564 32.6326 15.8564L32.6329 20.0626Z" fill="#000427"/>
</g>
<defs>
<clipPath id="clip0_5301_75175">
<rect width="44" height="44" fill="white"/>
</clipPath>
</defs>
</svg>
