<svg width="44" height="44" viewBox="0 0 44 44" fill="none" xmlns="http://www.w3.org/2000/svg">
<g clip-path="url(#clip0_5301_75175)">
<circle cx="22" cy="22" r="22" fill="white"/>
<path d="M22 2C10.9543 2 2 10.9543 2 22C2 33.0457 10.9543 42 22 42C33.0457 42 42 33.0457 42 22C42 10.9543 33.0457 2 22 2ZM32.1266 20.1548C30.0028 20.1548 27.9364 19.4656 26.3453 18.2994L26.3327 26.2291C26.3313 27.6984 25.8819 29.1324 25.0445 30.3397C24.207 31.547 23.0212 32.4701 21.6454 32.986C20.2696 33.5018 18.7692 33.5859 17.3444 33.2268C15.9196 32.8678 14.6382 32.0827 13.6712 30.9765C12.7041 29.8702 12.0975 28.4954 11.9321 27.0354C11.7668 25.5754 12.0506 24.0997 12.7458 22.8052C13.441 21.5107 14.5144 20.459 15.8228 19.7904C17.1312 19.1219 18.6124 18.8682 20.0687 19.0634V22.9575C19.3818 22.7546 18.6483 22.773 17.9725 23.0104C17.2966 23.2477 16.7126 23.6918 16.3033 24.2796C15.894 24.8675 15.6802 25.5693 15.6922 26.2856C15.7042 27.0018 15.9414 27.6961 16.3701 28.2699C16.7989 28.8437 17.3974 29.268 18.0809 29.4826C18.7643 29.6971 19.498 29.691 20.1777 29.4652C20.8575 29.2394 21.449 28.8052 21.8682 28.2244C22.2873 27.6435 22.513 26.9454 22.5131 26.2291V10.5416H26.519C26.519 11.278 26.664 12.0072 26.9458 12.6875C27.2276 13.3678 27.6407 13.9859 28.1613 14.5066C28.682 15.0273 29.3002 15.4403 29.9805 15.7221C30.6608 16.0039 31.39 16.1489 32.1263 16.1489L32.1266 20.1548Z" fill="#000427"/>
</g>
<defs>
<clipPath id="clip0_5301_75175">
<rect width="44" height="44" fill="white"/>
</clipPath>
</defs>
</svg>
